<svg width="560" height="153" viewBox="0 0 560 153" fill="none" xmlns="http://www.w3.org/2000/svg">
<path fill-rule="evenodd" clip-rule="evenodd" d="M212.711 520.845C376.632 581.123 422.758 373.177 453.718 285.356C469.94 239.341 395.962 217.898 338.724 183.1C266.104 138.95 203.855 38.4217 146.782 83.4132C93.0301 125.789 29.1494 119.307 5.28096 127.263C-73.7239 153.597 -124.167 249.086 -118.502 344.429C-114.693 408.54 -68.8192 458.32 -18.9571 462.93C150.172 478.569 159.303 501.207 212.711 520.845Z" fill="#F0EDE8"/>
<path d="M72.5181 127.975L72.281 127.263L72.5182 127.975C78.3961 126.015 86.7787 124.935 96.987 123.759C98.0196 123.64 99.0703 123.52 100.138 123.398C109.594 122.319 120.399 121.087 131.959 118.983C157.698 114.3 187.239 105.294 214.246 84.0021C228.322 72.9062 242.671 70.7934 257.455 74.5271C272.292 78.2744 287.591 87.9196 303.459 100.418C315.01 109.516 326.812 120.084 338.923 130.929C343.447 134.979 348.014 139.068 352.627 143.134C369.571 158.069 387.12 172.667 405.335 183.741C418.872 191.971 433.34 199.453 447.308 206.677C448.132 207.103 448.955 207.529 449.776 207.953C464.513 215.579 478.585 222.943 490.358 230.649C502.139 238.361 511.543 246.37 517.004 255.252C522.439 264.093 523.988 273.825 520.011 285.107C516.777 294.28 513.382 304.747 509.708 316.072C495.761 359.073 477.804 414.434 449.445 458.23C431.543 485.877 409.542 508.834 381.864 521.144C354.209 533.444 320.796 535.154 279.97 520.141C268.003 515.741 258.268 511.191 248.421 506.589C247.311 506.07 246.199 505.551 245.082 505.03C234.065 499.898 222.601 494.725 207.51 489.676C177.333 479.581 132.703 470.005 48.112 462.183C-1.30972 457.614 -46.9615 408.202 -50.7533 344.385C-56.4051 249.265 -6.06741 154.169 72.5181 127.975Z" stroke="black" stroke-width="1.5"/>
<mask id="mask0_276_1649" style="mask-type:alpha" maskUnits="userSpaceOnUse" x="176" y="98" width="173" height="147">
<path d="M286.687 242.441L286.697 242.941L286.687 242.441C284.851 242.479 282.408 242.036 279.401 241.445C279.098 241.386 278.79 241.325 278.476 241.263C275.701 240.714 272.519 240.085 269.025 239.643C261.241 238.659 251.877 238.601 241.816 242.413C236.677 244.36 232.506 243.673 228.867 241.274C225.192 238.851 222.029 234.66 219.009 229.535C216.812 225.808 214.714 221.629 212.556 217.331C211.748 215.722 210.932 214.097 210.099 212.472C207.049 206.521 203.782 200.595 199.918 195.643C197.052 191.971 193.84 188.436 190.748 185.032C190.565 184.83 190.382 184.628 190.199 184.427C186.933 180.83 183.837 177.386 181.425 174.054C179.011 170.718 177.317 167.543 176.809 164.492C176.307 161.471 176.96 158.537 179.323 155.632C181.283 153.221 183.435 150.445 185.762 147.444C194.583 136.067 205.915 121.451 218.845 111.18C227.007 104.696 235.756 99.9869 244.858 98.9082C253.937 97.8322 263.427 100.362 273.11 108.474C275.954 110.856 278.156 113.078 280.394 115.335C280.646 115.589 280.899 115.844 281.153 116.1C283.66 118.623 286.296 121.206 289.968 124.086C297.31 129.845 308.764 136.765 331.613 146.824C344.77 152.615 351.936 171.156 345.739 190.212C341.119 204.419 332.581 217.36 322.075 226.808C311.567 236.259 299.121 242.189 286.687 242.441Z" fill="#BB2E29" stroke="white"/>
</mask>
<g mask="url(#mask0_276_1649)">
<rect x="322.587" y="275.683" width="13.7309" height="153.988" transform="rotate(-161.384 322.587 275.683)" fill="#E5243B" stroke="white"/>
<rect x="312.68" y="272.346" width="13.7309" height="153.988" transform="rotate(-161.384 312.68 272.346)" fill="#DDA63A" stroke="white"/>
<rect x="302.772" y="269.009" width="13.7309" height="153.988" transform="rotate(-161.384 302.772 269.009)" fill="#4C9F38" stroke="white"/>
<rect x="292.865" y="265.671" width="13.7309" height="153.988" transform="rotate(-161.384 292.865 265.671)" fill="#C5192D" stroke="white"/>
<rect x="282.958" y="262.334" width="13.7309" height="153.988" transform="rotate(-161.384 282.958 262.334)" fill="#FF3A21" stroke="white"/>
<rect x="273.051" y="258.997" width="13.7309" height="153.988" transform="rotate(-161.384 273.051 258.997)" fill="#26BDE2" stroke="white"/>
<rect x="263.143" y="255.66" width="13.7309" height="153.988" transform="rotate(-161.384 263.143 255.66)" fill="#FCC30B" stroke="white"/>
<rect x="253.236" y="252.323" width="13.7309" height="153.988" transform="rotate(-161.384 253.236 252.323)" fill="#A21942" stroke="white"/>
<rect x="243.329" y="248.986" width="13.7309" height="153.988" transform="rotate(-161.384 243.329 248.986)" fill="#FD6925" stroke="white"/>
<rect x="233.421" y="245.648" width="13.7309" height="153.988" transform="rotate(-161.384 233.421 245.648)" fill="#DD1367" stroke="white"/>
<rect x="223.514" y="242.311" width="13.7309" height="153.988" transform="rotate(-161.384 223.514 242.311)" fill="#FD9D24" stroke="white"/>
<rect x="213.607" y="238.974" width="13.7309" height="153.988" transform="rotate(-161.384 213.607 238.974)" fill="#BF8B2E" stroke="white"/>
<rect x="203.7" y="235.637" width="13.7309" height="153.988" transform="rotate(-161.384 203.7 235.637)" fill="#3F7E44" stroke="white"/>
<rect x="193.792" y="232.3" width="13.7309" height="153.988" transform="rotate(-161.384 193.792 232.3)" fill="#0A97D9" stroke="white"/>
<rect x="183.885" y="228.963" width="13.7309" height="153.988" transform="rotate(-161.384 183.885 228.963)" fill="#56C02B" stroke="white"/>
<rect x="173.978" y="225.625" width="13.7309" height="153.988" transform="rotate(-161.384 173.978 225.625)" fill="#00689D" stroke="white"/>
<rect x="164.032" y="222.275" width="9.60978" height="153.988" transform="rotate(-161.384 164.032 222.275)" fill="#19486A" stroke="white"/>
</g>
</svg>
