<svg width="626" height="330" viewBox="0 0 626 330" fill="none" xmlns="http://www.w3.org/2000/svg">
<path fill-rule="evenodd" clip-rule="evenodd" d="M461.406 36.981C636.032 33.9563 603.905 -176.606 601.041 -269.681C599.541 -318.448 522.812 -311.712 456.869 -323.478C373.202 -338.405 278.834 -409.649 241.875 -347.076C207.066 -288.141 145.159 -271.103 125.778 -255.06C61.6257 -201.958 49.0933 -94.6944 88.826 -7.83936C115.543 50.5635 176.304 80.4047 224.463 66.6864C387.817 20.1576 404.51 37.9672 461.406 36.981Z" fill="#F0EDE8"/>
<path d="M308.958 -164.306C308.145 -158.14 307.067 -151.19 305.9 -143.674C301.475 -115.153 295.784 -78.4701 298.508 -45.466C300.227 -24.6305 305.298 -5.35928 316.094 9.41458C326.869 24.1601 343.399 34.4982 368.207 37.3946C375.488 38.2448 381.67 38.3829 387.94 38.5229C388.647 38.5387 389.355 38.5545 390.066 38.5714C397.08 38.7378 404.348 39.0065 413.44 40.371C431.62 43.0993 457.036 50.1997 502.385 69.5461C528.639 80.7467 565.096 65.5039 584.151 30.1275C598.346 3.77281 605.413 -26.5379 604.786 -54.8933C604.159 -83.2544 595.838 -109.595 579.337 -128.078C576.887 -130.823 572.924 -133.78 568.015 -137.332C567.519 -137.69 567.015 -138.055 566.502 -138.425C561.959 -141.704 556.758 -145.458 551.405 -149.923C539.482 -159.87 526.767 -173.376 518.662 -193.212C514.48 -203.446 507.79 -208.613 499.351 -210.611C490.845 -212.625 480.502 -211.433 469.044 -208.754C460.708 -206.805 451.853 -204.088 442.753 -201.296C439.35 -200.252 435.913 -199.198 432.455 -198.169C419.779 -194.397 406.86 -190.979 394.539 -189.77C385.395 -188.872 375.977 -188.666 366.9 -188.467C366.363 -188.455 365.827 -188.443 365.292 -188.431C355.707 -188.218 346.556 -187.968 338.491 -186.878C330.419 -185.787 323.522 -183.864 318.404 -180.362C313.324 -176.886 309.949 -171.822 308.958 -164.306Z" stroke="black" stroke-width="1.5"/>
<path fill-rule="evenodd" clip-rule="evenodd" d="M172.843 16.3381C219.826 -120.455 50.5896 -153.757 -21.0178 -177.305C-58.5372 -189.643 -75.0682 -128.041 -102.629 -79.9588C-137.596 -18.9542 -218.423 34.7841 -181.256 80.8888C-146.25 124.311 -150.761 177.227 -144.027 196.76C-121.74 261.411 -43.6841 300.875 33.5977 293.996C85.5634 289.37 125.411 250.33 128.568 209.036C139.277 68.9716 157.536 60.9071 172.843 16.3381Z" fill="#C5192D"/>
</svg>
