<svg width="53" height="164" viewBox="0 0 53 164" fill="none" xmlns="http://www.w3.org/2000/svg">
<path d="M70.2461 158.15L70.0222 158.597L70.2461 158.15C68.5359 157.294 66.4695 155.693 63.9501 153.683C63.6961 153.481 63.4378 153.274 63.1751 153.064C60.8502 151.205 58.1861 149.075 55.156 146.97C48.4067 142.28 39.812 137.69 28.9465 136.388C23.3981 135.722 19.8333 133.056 17.4795 129.025C15.106 124.961 13.954 119.49 13.3263 113.224C12.8697 108.665 12.6937 103.731 12.5126 98.6571C12.4449 96.7589 12.3765 94.8413 12.2924 92.9164C11.9844 85.8633 11.4663 78.7323 9.99021 72.2258C8.8953 67.3995 7.42423 62.5325 6.00724 57.8445C5.92329 57.5667 5.83953 57.2896 5.75604 57.0131C4.26063 52.0611 2.85647 47.3303 2.03481 43.0363C1.21202 38.7364 0.985856 34.9325 1.80241 31.8207C2.61063 28.7407 4.44574 26.3139 7.83045 24.7413C10.6499 23.4314 13.7984 21.8728 17.2022 20.1879C30.1048 13.8009 46.6753 5.59833 62.8921 2.23884C73.1265 0.118687 83.1592 -0.0561287 91.9944 3.34308C100.813 6.73575 108.499 13.7124 114.014 26.0205C115.632 29.6333 116.728 32.7847 117.839 35.9837C117.965 36.3443 118.09 36.7055 118.217 37.068C119.465 40.6458 120.806 44.3407 122.975 48.8147C127.312 57.7608 134.946 69.7888 151.756 90.2811C161.469 102.12 160.247 122.988 146.546 137.829C126.077 160.001 93.3753 169.735 70.2461 158.15Z" stroke="black"/>
</svg>
