<svg width="254" height="131" viewBox="0 0 254 131" fill="none" xmlns="http://www.w3.org/2000/svg">
<path fill-rule="evenodd" clip-rule="evenodd" d="M228.972 37.7411C288.821 5.2229 322.622 91.2552 341.407 127.098C351.25 145.878 323.805 158.116 303.944 175.29C278.745 197.08 261.872 242.286 236.059 225.685C211.748 210.05 187.142 215.524 177.165 213.177C144.143 205.41 117.126 167.155 112.162 126.563C108.823 99.2676 123.09 76.239 142.331 72.1564C207.592 58.3068 209.472 48.3357 228.972 37.7411Z" fill="#F0EDE8"/>
<path d="M153.262 63.3411C155.047 65.7537 157.13 68.4244 159.38 71.309C167.892 82.2223 178.791 96.1973 184.99 110.843C188.899 120.081 190.897 129.503 189.271 138.516C187.649 147.505 182.405 156.186 171.637 163.933C168.473 166.21 165.655 167.896 162.786 169.613C162.463 169.806 162.139 170 161.813 170.195C158.604 172.121 155.291 174.163 151.381 177.155C143.563 183.136 133.399 192.881 116.801 213.072C107.303 224.626 87.1706 227.787 70.4852 217.923C45.4872 203.144 30.2082 174.263 37.0359 150.081C37.5352 148.313 38.6782 146.047 40.1489 143.235C40.2968 142.952 40.4476 142.664 40.6011 142.372C41.9586 139.783 43.5183 136.808 44.9868 133.49C48.2586 126.099 51.1026 116.953 50.3483 106.319C49.9717 101.008 51.8403 97.1499 55.2273 94.1298C58.6559 91.0726 63.6596 88.86 69.5562 86.9703C73.8439 85.5961 78.5407 84.4106 83.3796 83.1893C85.1924 82.7317 87.0252 82.2691 88.8638 81.7897C95.5858 80.0369 102.36 78.065 108.36 75.3087C112.803 73.2676 117.215 70.8612 121.457 68.5479C121.709 68.4104 121.96 68.2733 122.211 68.1366C126.696 65.6922 130.971 63.3874 134.932 61.7249C138.902 60.0587 142.474 59.0741 145.557 59.2019C148.591 59.3277 151.181 60.5291 153.262 63.3411Z" stroke="black" stroke-width="1.5"/>
</svg>
