<svg width="249" height="640" viewBox="0 0 249 640" fill="none" xmlns="http://www.w3.org/2000/svg">
<!-- <path fill-rule="evenodd" clip-rule="evenodd" d="M134.487 37.6448C182.007 56.2096 198.578 -9.4951 208.965 -37.2751C214.407 -51.8308 192.879 -58.3927 176.482 -69.2115C155.678 -82.938 138.736 -114.473 121.253 -100.129C104.787 -86.6192 86.026 -88.4901 78.8686 -85.9161C55.1777 -77.3969 38.9323 -47.1458 39.2479 -17.0928C39.4601 3.11545 52.2904 18.69 66.9403 20.0085C116.632 24.4817 119.005 31.5963 134.487 37.6448Z" fill="#26BDE2"/>
 --><path fill-rule="evenodd" clip-rule="evenodd" d="M42.9607 66.7988C109.702 18.8234 39.2324 -56.1265 12.4702 -92.2935C-1.55203 -111.243 -29.387 -88.0181 -58.1478 -75.0232C-94.6387 -58.5358 -150.793 -61.5299 -147.848 -26.7994C-145.074 5.91101 -164.334 29.2543 -167.411 40.812C-177.6 79.0673 -152.885 124.989 -113.57 148.812C-87.1334 164.831 -55.3957 160.397 -40.5409 142.054C9.84698 79.8344 21.2158 82.4301 42.9607 66.7988Z" fill="#F0EDE8"/>
<path d="M188.262 -114.663C190.047 -112.25 192.13 -109.579 194.38 -106.695C202.892 -95.7814 213.791 -81.8064 219.99 -67.161C223.899 -57.9227 225.897 -48.5007 224.271 -39.4877C222.649 -30.4988 217.405 -21.8172 206.637 -14.0702C203.473 -11.7936 200.655 -10.1077 197.786 -8.39079C197.463 -8.19735 197.139 -8.0035 196.813 -7.80838C193.604 -5.88221 190.291 -3.84069 186.381 -0.849132C178.563 5.13199 168.399 14.8776 151.801 35.0686C142.303 46.6226 122.171 49.7829 105.485 39.9189C80.4872 25.1408 65.2082 -3.74068 72.0359 -27.9222C72.5352 -29.6905 73.6782 -31.9565 75.1489 -34.7689C75.2968 -35.0516 75.4476 -35.3393 75.6011 -35.632C76.9586 -38.221 78.5183 -41.1958 79.9868 -44.5133C83.2586 -51.9048 86.1026 -61.0504 85.3483 -71.6843C84.9717 -76.9954 86.8403 -80.8537 90.2273 -83.8739C93.6559 -86.9311 98.6596 -89.1436 104.556 -91.0334C108.844 -92.4075 113.541 -93.593 118.38 -94.8144C120.192 -95.2719 122.025 -95.7345 123.864 -96.214C130.586 -97.9667 137.36 -99.9387 143.36 -102.695C147.803 -104.736 152.215 -107.142 156.457 -109.456C156.709 -109.593 156.96 -109.73 157.211 -109.867C161.696 -112.311 165.971 -114.616 169.932 -116.279C173.902 -117.945 177.474 -118.93 180.557 -118.802C183.591 -118.676 186.181 -117.475 188.262 -114.663Z" stroke="black" stroke-width="1.5"/>
</svg>
