<?xml version="1.0" encoding="UTF-8" standalone="no"?>
<!DOCTYPE svg PUBLIC "-//W3C//DTD SVG 1.1//EN" "http://www.w3.org/Graphics/SVG/1.1/DTD/svg11.dtd">
<svg width="100%" height="100%" viewBox="0 0 70 70" version="1.1" xmlns="http://www.w3.org/2000/svg" xmlns:xlink="http://www.w3.org/1999/xlink" xml:space="preserve" xmlns:serif="http://www.serif.com/" style="fill-rule:evenodd;clip-rule:evenodd;stroke-linejoin:round;stroke-miterlimit:2;">
    <g transform="matrix(1,0,0,1,-6727.75,-511.67)">
        <g transform="matrix(0.4282,0,0,0.346067,4189.94,0)">
            <g transform="matrix(2.16616,0,0,2.68026,-9422.87,1097.56)">
                <path d="M7087.26,171.019C7087.16,170.996 7087.09,171.094 7087.07,171.149C7086.4,174.006 7086.06,176.933 7086.06,179.871C7086.06,200.697 7102.83,217.605 7123.48,217.605C7125.87,217.605 7128.26,217.373 7130.61,216.913C7130.69,216.896 7130.79,216.89 7130.83,216.84C7130.86,216.79 7130.82,216.615 7130.82,216.615L7126.4,194.516C7126.4,194.516 7126.35,194.015 7126.18,193.97C7125.93,193.9 7125.37,193.982 7124.92,194.029C7124.44,194.079 7123.96,194.104 7123.48,194.104C7115.69,194.104 7109.36,187.726 7109.36,179.871C7109.36,178.959 7109.45,178.05 7109.62,177.157C7109.66,176.943 7109.79,176.58 7109.59,176.524C7106.03,175.548 7089.01,171.441 7087.26,171.019ZM7136.78,212.632C7136.78,212.633 7136.79,212.633 7136.79,212.631C7151.24,207.469 7160.89,193.784 7160.89,178.443C7160.89,158.405 7144.61,142.137 7124.57,142.137C7123.71,142.137 7122.85,142.168 7121.99,142.229C7121.91,142.234 7121.83,142.236 7121.8,142.273C7121.76,142.31 7121.78,142.449 7121.78,142.449L7123.08,159.264C7123.08,159.264 7123.08,159.28 7123.09,159.283C7123.1,159.287 7123.11,159.287 7123.12,159.286C7123.6,159.25 7124.08,159.232 7124.57,159.232C7135.18,159.232 7143.79,167.84 7143.79,178.443C7143.79,186.474 7138.79,193.648 7131.28,196.445C7131.21,196.469 7131.05,196.524 7131.06,196.582C7131.06,196.607 7131.17,196.94 7131.17,196.94L7136.78,212.625C7136.78,212.625 7136.78,212.631 7136.78,212.632ZM7119.61,211.347L7122.88,207.949L7123.57,211.58L7119.61,211.347ZM7112.78,209.335L7121.32,200.933L7122.08,204.47L7116.09,210.553L7112.78,209.335ZM7107,206.49L7109.73,208.139L7118.09,199.685L7114.95,198.43L7107,206.49ZM7109.71,194.935L7112.26,196.907L7104.23,204.781L7101.95,202.705L7109.71,194.935ZM7097.8,198.118L7099.79,200.933L7107.75,192.807L7105.73,190.147L7097.8,198.118ZM7094.46,192.6L7096.11,195.54L7104.23,187.264L7103.16,184.05L7094.46,192.6ZM7092.32,186.149L7093.17,189.795L7101.87,180.947L7098.48,179.973L7092.32,186.149ZM7091.49,182.779L7091.31,178.287L7094.84,179.23L7091.49,182.779ZM7111.97,143.342C7111.9,143.302 7111.77,143.356 7111.67,143.393C7101.67,147.063 7093.78,154.941 7090.1,164.938C7090.06,165.047 7090.02,165.157 7090.06,165.233C7090.1,165.309 7090.33,165.394 7090.33,165.394L7105.79,170.91C7105.79,170.91 7106.03,170.978 7106.1,170.933C7106.17,170.889 7106.18,170.766 7106.22,170.642C7108.2,165.449 7112.34,161.361 7117.56,159.443C7117.61,159.423 7117.68,159.407 7117.7,159.377C7117.72,159.347 7117.68,159.262 7117.68,159.262L7112.1,143.633C7112.1,143.633 7112.04,143.382 7111.97,143.342Z" style="fill:white;"/>
            </g>
        </g>
    </g>
</svg>
