<svg width="182" height="180" viewBox="0 0 182 180" fill="none" xmlns="http://www.w3.org/2000/svg">
<path fill-rule="evenodd" clip-rule="evenodd" class="fill-color" d="M99.6281 151.709C142.761 168.58 158.407 107.321 168.101 81.3921C173.181 67.8064 153.625 61.8826 138.778 51.956C119.941 39.3614 104.773 10.1687 88.7259 23.6581C73.6125 36.3632 56.538 34.78 49.9964 37.2344C28.3435 45.3576 13.2912 73.6341 13.327 101.588C13.351 120.384 24.9085 134.765 38.243 135.868C83.4729 139.613 85.5747 146.212 99.6281 151.709Z" fill="#26BDE2"/>
<path d="M39.9424 142.49L39.8805 143.237L39.9423 142.49C27.126 141.429 15.7382 127.507 15.7145 108.955C15.6967 95.1074 19.4179 81.176 25.8207 69.709C32.2267 58.2364 41.2828 49.2874 51.8973 45.3053L51.6338 44.6031L51.8973 45.3053C53.441 44.7261 55.6465 44.3739 58.4262 43.9754C58.7053 43.9353 58.9896 43.8949 59.2789 43.8538C61.8369 43.4901 64.7804 43.0716 67.9417 42.3922C74.9904 40.8773 83.1648 38.058 90.8459 31.6009C94.6797 28.3781 98.3881 27.7395 102.116 28.712C105.911 29.7023 109.79 32.3802 113.847 35.9568C116.796 38.5555 119.783 41.5771 122.865 44.6943C124.021 45.8634 125.191 47.0459 126.376 48.2246C130.702 52.5263 135.225 56.7565 139.999 59.9481C143.529 62.3084 147.32 64.4421 150.959 66.4898C151.175 66.6118 151.392 66.7334 151.607 66.8548C155.455 69.022 159.095 71.0974 162.11 73.2782C165.13 75.4629 167.45 77.7037 168.721 80.1695C169.972 82.5959 170.235 85.2928 169.036 88.4981C168.017 91.2249 166.936 94.3279 165.768 97.6802C161.347 110.368 155.682 126.626 147.41 139.565C142.189 147.732 135.978 154.491 128.467 158.181C120.989 161.856 112.144 162.527 101.539 158.379C98.4167 157.158 95.8938 155.883 93.3167 154.581C93.0265 154.434 92.7356 154.287 92.4431 154.14C89.5545 152.686 86.5273 151.212 82.5141 149.793C74.4913 146.958 62.586 144.365 39.9424 142.49Z" stroke="black" stroke-width="1.5"/>
</svg>
