<svg width="360" height="265" viewBox="0 0 360 265" fill="none" xmlns="http://www.w3.org/2000/svg">
<!-- <path fill-rule="evenodd" clip-rule="evenodd" d="M99.4876 49.6448C147.007 68.2096 163.578 2.50491 173.965 -25.2751C179.407 -39.8308 157.879 -46.3927 141.482 -57.2115C120.678 -70.938 103.737 -102.473 86.2531 -88.129C69.7867 -74.6192 51.0261 -76.4901 43.8688 -73.9161C20.1779 -65.3969 3.93242 -35.1458 4.24804 -5.09274C4.46019 15.1155 17.2905 30.69 31.9405 32.0085C81.6323 36.4817 84.0049 43.5964 99.4876 49.6448Z" fill="#DDA63A"/>
 --><path fill-rule="evenodd" clip-rule="evenodd" d="M38.9607 145.799C105.702 97.8234 35.2324 22.8735 8.47025 -13.2935C-5.55203 -32.2435 -33.387 -9.0181 -62.1478 3.97678C-98.6387 20.4642 -154.793 17.4701 -151.848 52.2006C-149.074 84.911 -168.334 108.254 -171.411 119.812C-181.6 158.067 -156.885 203.989 -117.57 227.812C-91.1334 243.831 -59.3957 239.397 -44.5409 221.054C5.84698 158.834 17.2158 161.43 38.9607 145.799Z" fill="#FFFFFF"/>
<path d="M8.98129 -29.6715C11.7813 -25.8875 15.0518 -21.688 18.5889 -17.1462C32.0087 0.0857149 49.2659 22.2452 59.2269 45.3363C65.5142 59.9115 68.8632 74.7953 66.5261 88.9892C64.1924 103.163 56.1771 116.72 39.5937 128.641C34.7295 132.138 30.3885 134.717 25.9897 137.331C25.4936 137.626 24.9969 137.921 24.4985 138.218C19.5819 141.149 14.5258 144.247 8.57057 148.808C-3.33782 157.928 -18.8086 172.872 -44.0151 203.997C-58.6562 222.077 -90.069 226.541 -116.326 210.63C-155.505 186.89 -180.025 141.19 -169.919 103.247C-169.168 100.425 -167.418 96.855 -165.215 92.5148C-164.993 92.0764 -164.766 91.6306 -164.535 91.1774C-162.494 87.1654 -160.157 82.5746 -157.969 77.4484C-153.096 66.0323 -148.942 51.9242 -150.339 35.4461C-151.06 26.9424 -148.175 20.7858 -142.88 16.0371C-137.552 11.2592 -129.764 7.89059 -120.666 5.06917C-114.044 3.01595 -106.778 1.26582 -99.3126 -0.532073C-96.5222 -1.20412 -93.7041 -1.88284 -90.8816 -2.58655C-80.5269 -5.16825 -70.1341 -8.08219 -60.9631 -12.2259C-54.1541 -15.3024 -47.3991 -18.9495 -40.8855 -22.4663C-40.5003 -22.6743 -40.1159 -22.8818 -39.7324 -23.0887C-32.8549 -26.7998 -26.2664 -30.3148 -20.1445 -32.8328C-14.0164 -35.3534 -8.41607 -36.8487 -3.50972 -36.5713C1.3604 -36.296 5.57592 -34.2736 8.98129 -29.6715Z" stroke="black" stroke-width="1.10841"/>
</svg>
