<?xml version="1.0" encoding="UTF-8" standalone="no"?>
<!DOCTYPE svg PUBLIC "-//W3C//DTD SVG 1.1//EN" "http://www.w3.org/Graphics/SVG/1.1/DTD/svg11.dtd">
<svg width="100%" height="100%" viewBox="0 0 70 70" version="1.1" xmlns="http://www.w3.org/2000/svg" xmlns:xlink="http://www.w3.org/1999/xlink" xml:space="preserve" xmlns:serif="http://www.serif.com/" style="fill-rule:evenodd;clip-rule:evenodd;stroke-linejoin:round;stroke-miterlimit:2;">
    <g transform="matrix(1,0,0,1,-6727.49,-354.373)">
        <g transform="matrix(0.4282,0,0,0.346067,4197.29,0)">
            <g transform="matrix(0.8883,0,0,1.09912,-323.732,845.825)">
                <path d="M7108.41,162.107C7159.2,162.107 7200.43,203.337 7200.43,254.122C7200.43,304.907 7159.2,346.138 7108.41,346.138C7057.63,346.138 7016.4,304.907 7016.4,254.122C7016.4,203.337 7057.63,162.107 7108.41,162.107ZM7089.75,235.829L7089.74,252.896C7089.74,253.448 7089.89,253.64 7090.6,253.639L7107.63,253.658C7108.38,253.663 7108.43,253.837 7108.42,254.455L7108.41,316.59C7108.44,318.012 7108.77,318.386 7110.02,318.362L7126.27,318.369C7127.06,318.358 7127.08,317.768 7127.08,316.948C7127.08,313.789 7127.07,253.509 7127.07,253.509C7127.33,243.653 7118.64,235.059 7108.87,235.021C7108.87,235.021 7094.21,235.096 7090.57,235.1C7089.84,235.063 7089.74,235.228 7089.75,235.829ZM7108.87,189.876C7116.37,189.876 7122.46,195.971 7122.46,203.479C7122.46,210.988 7116.37,217.083 7108.87,217.083C7101.37,217.083 7095.28,210.988 7095.28,203.479C7095.28,195.971 7101.37,189.876 7108.87,189.876Z" style="fill:white;"/>
            </g>
        </g>
    </g>
</svg>
