<?xml version="1.0" encoding="UTF-8" standalone="no"?>
<!DOCTYPE svg PUBLIC "-//W3C//DTD SVG 1.1//EN" "http://www.w3.org/Graphics/SVG/1.1/DTD/svg11.dtd">
<svg width="100%" height="100%" viewBox="0 0 58 59" version="1.1" xmlns="http://www.w3.org/2000/svg" xmlns:xlink="http://www.w3.org/1999/xlink" xml:space="preserve" xmlns:serif="http://www.serif.com/" style="fill-rule:evenodd;clip-rule:evenodd;stroke-linejoin:round;stroke-miterlimit:2;">
    <g transform="matrix(1,0,0,1,-362.91,-348.359)">
        <g transform="matrix(0.973632,0,0,0.986662,10.3794,3.6599)">
            <path d="M382.474,375.78C370.639,379.612 362.078,390.68 362.078,403.716C362.078,404.558 362.114,405.393 362.184,406.217C362.294,407.511 363.377,408.504 364.675,408.504L418.567,408.504C419.865,408.504 420.948,407.511 421.058,406.217C421.128,405.393 421.164,404.558 421.164,403.716C421.164,390.925 412.922,380.028 401.431,376.003C404.793,373.255 406.945,369.056 406.945,364.351C406.945,356.069 400.279,349.359 392.086,349.359C383.893,349.359 377.227,356.069 377.227,364.351C377.227,368.93 379.266,373.03 382.474,375.78ZM416.162,403.504L367.079,403.504C367.193,390.146 378.15,379.342 391.621,379.342C405.092,379.342 416.049,390.146 416.162,403.504ZM392.086,354.359C397.535,354.359 401.945,358.844 401.945,364.351C401.945,369.858 397.535,374.342 392.086,374.342C386.637,374.342 382.227,369.858 382.227,364.351C382.227,358.844 386.637,354.359 392.086,354.359Z"/>
        </g>
    </g>
</svg>
