<?xml version="1.0" encoding="UTF-8" standalone="no"?>
<!DOCTYPE svg PUBLIC "-//W3C//DTD SVG 1.1//EN" "http://www.w3.org/Graphics/SVG/1.1/DTD/svg11.dtd">
<svg width="100%" height="100%" viewBox="0 0 77 70" version="1.1" xmlns="http://www.w3.org/2000/svg" xmlns:xlink="http://www.w3.org/1999/xlink" xml:space="preserve" xmlns:serif="http://www.serif.com/" style="fill-rule:evenodd;clip-rule:evenodd;stroke-linejoin:round;stroke-miterlimit:2;">
    <g transform="matrix(1,0,0,1,-6633.69,-511.67)">
        <g transform="matrix(0.4282,0,0,0.346067,4189.94,0)">
            <g transform="matrix(0.933912,0,0,1.28413,-966.936,959.21)">
                <path d="M7336.36,407.677C7336.36,405.875 7334.89,404.413 7333.09,404.413L7149.5,404.413C7147.7,404.413 7146.24,405.875 7146.24,407.677L7146.24,558.667C7146.24,560.468 7147.7,561.931 7149.5,561.931L7333.09,561.931C7334.89,561.931 7336.36,560.468 7336.36,558.667L7336.36,407.677ZM7319.48,421.926C7319.48,419.78 7317.74,418.039 7315.59,418.039L7166.7,418.039C7164.56,418.039 7162.81,419.78 7162.81,421.926L7162.81,542.336C7162.81,544.482 7164.56,546.224 7166.7,546.224L7315.59,546.224C7317.74,546.224 7319.48,544.482 7319.48,542.336L7319.48,421.926ZM7191.26,523.549C7192.27,524.394 7192.4,523.97 7193.24,523.17L7212,503.456C7216.56,501.419 7220.49,506.602 7218.23,509.896L7195.94,534.363C7193.99,536.483 7192.68,536.954 7190.16,535.103L7175.64,523.527C7172.87,519.705 7177.66,514.578 7182.56,517.686L7191.26,523.549ZM7300.07,525.067C7302.2,523.975 7302.21,515.751 7300.27,514.606C7299.29,514.032 7298.28,513.037 7297.07,513.037L7230.72,513.037C7229.4,513.037 7227.87,513.456 7226.84,514.126C7225.03,515.301 7225.56,523.844 7227.58,524.97C7228.52,525.499 7229.56,526.214 7230.72,526.214L7297.07,526.214C7298.15,526.214 7299.17,525.53 7300.07,525.067ZM7191.26,484.488C7192.27,485.334 7192.4,484.91 7193.24,484.109L7212,464.395C7216.56,462.359 7220.49,467.542 7218.23,470.836L7195.94,495.303C7193.99,497.423 7192.68,497.894 7190.16,496.043L7175.64,484.467C7172.87,480.645 7177.66,475.518 7182.56,478.626L7191.26,484.488ZM7300.62,485.447C7302.72,484.344 7302.4,476.645 7300.46,475.501C7299.48,474.926 7298.28,473.977 7297.07,473.977L7230.72,473.977C7229.09,473.977 7227.6,474.57 7226.44,475.552C7225.03,476.761 7225.33,484.919 7227.13,486.094C7228.17,486.764 7229.4,487.154 7230.72,487.154L7297.07,487.154C7298.18,487.154 7299.71,485.929 7300.62,485.447ZM7191.26,445.428C7192.27,446.274 7192.4,445.849 7193.24,445.049L7212,425.335C7216.56,423.299 7220.49,428.482 7218.23,431.775L7195.94,456.243C7193.99,458.363 7192.68,458.833 7190.16,456.983L7175.64,445.406C7172.87,441.584 7177.66,436.458 7182.56,439.566L7191.26,445.428ZM7299.91,447.576C7301.93,446.45 7301.89,436.754 7299.89,435.623C7298.94,435.081 7298.25,434.917 7297.07,434.917L7230.72,434.917C7229.42,434.917 7226.93,434.917 7226.56,437.064C7226.15,439.435 7225.9,443.754 7226.9,446.294C7227.54,447.922 7229.8,448.094 7230.72,448.094L7297.07,448.094C7298.23,448.094 7298.96,448.104 7299.91,447.576Z" style="fill:white;"/>
            </g>
        </g>
    </g>
</svg>
