<?xml version="1.0" encoding="UTF-8" standalone="no"?>
<!DOCTYPE svg PUBLIC "-//W3C//DTD SVG 1.1//EN" "http://www.w3.org/Graphics/SVG/1.1/DTD/svg11.dtd">
<svg width="100%" height="100%" viewBox="0 0 4 383" version="1.1" xmlns="http://www.w3.org/2000/svg" xmlns:xlink="http://www.w3.org/1999/xlink" xml:space="preserve" xmlns:serif="http://www.serif.com/" style="fill-rule:evenodd;clip-rule:evenodd;stroke-linejoin:round;stroke-miterlimit:2;">
    <g transform="matrix(1,0,0,1,-189.5,189.5)">
        <g transform="matrix(-1.83697e-16,1,-1,-1.83697e-16,193.5,-189.5)">
            <rect x="0" y="0" width="31" height="4" style="fill:rgb(229,36,59);"/>
        </g>
        <g transform="matrix(-1.83697e-16,1,-1,-1.83697e-16,193.5,-189.5)">
            <rect x="22" y="0" width="31" height="4" style="fill:rgb(221,166,58);"/>
        </g>
        <g transform="matrix(-1.83697e-16,1,-1,-1.83697e-16,193.5,-189.5)">
            <rect x="44" y="0" width="31" height="4" style="fill:rgb(76,159,56);"/>
        </g>
        <g transform="matrix(-1.83697e-16,1,-1,-1.83697e-16,193.5,-189.5)">
            <rect x="66" y="0" width="31" height="4" style="fill:rgb(197,25,45);"/>
        </g>
        <g transform="matrix(-1.83697e-16,1,-1,-1.83697e-16,193.5,-189.5)">
            <rect x="88" y="0" width="31" height="4" style="fill:rgb(255,58,33);"/>
        </g>
        <g transform="matrix(-1.83697e-16,1,-1,-1.83697e-16,193.5,-189.5)">
            <rect x="110" y="0" width="31" height="4" style="fill:rgb(38,189,226);"/>
        </g>
        <g transform="matrix(-1.83697e-16,1,-1,-1.83697e-16,193.5,-189.5)">
            <rect x="132" y="0" width="31" height="4" style="fill:rgb(252,195,11);"/>
        </g>
        <g transform="matrix(-1.83697e-16,1,-1,-1.83697e-16,193.5,-189.5)">
            <rect x="154" y="0" width="31" height="4" style="fill:rgb(162,25,66);"/>
        </g>
        <g transform="matrix(-1.83697e-16,1,-1,-1.83697e-16,193.5,-189.5)">
            <rect x="176" y="0" width="31" height="4" style="fill:rgb(253,105,37);"/>
        </g>
        <g transform="matrix(-1.83697e-16,1,-1,-1.83697e-16,193.5,-189.5)">
            <rect x="198" y="0" width="31" height="4" style="fill:rgb(221,19,103);"/>
        </g>
        <g transform="matrix(-1.83697e-16,1,-1,-1.83697e-16,193.5,-189.5)">
            <rect x="220" y="0" width="31" height="4" style="fill:rgb(253,157,36);"/>
        </g>
        <g transform="matrix(-1.83697e-16,1,-1,-1.83697e-16,193.5,-189.5)">
            <rect x="242" y="0" width="31" height="4" style="fill:rgb(191,139,46);"/>
        </g>
        <g transform="matrix(-1.83697e-16,1,-1,-1.83697e-16,193.5,-189.5)">
            <rect x="264" y="0" width="31" height="4" style="fill:rgb(63,126,68);"/>
        </g>
        <g transform="matrix(-1.83697e-16,1,-1,-1.83697e-16,193.5,-189.5)">
            <rect x="286" y="0" width="31" height="4" style="fill:rgb(10,151,217);"/>
        </g>
        <g transform="matrix(-1.83697e-16,1,-1,-1.83697e-16,193.5,-189.5)">
            <rect x="308" y="0" width="31" height="4" style="fill:rgb(86,192,43);"/>
        </g>
        <g transform="matrix(-1.83697e-16,1,-1,-1.83697e-16,193.5,-189.5)">
            <rect x="330" y="0" width="31" height="4" style="fill:rgb(0,104,157);"/>
        </g>
        <g transform="matrix(-1.83697e-16,1,-1,-1.83697e-16,193.5,-189.5)">
            <rect x="352" y="0" width="31" height="4" style="fill:rgb(25,72,106);"/>
        </g>
    </g>
</svg>
