<svg width="360" height="104" viewBox="0 0 360 104" fill="none" xmlns="http://www.w3.org/2000/svg">
<mask id="mask0_308_1649" style="mask-type:alpha" maskUnits="userSpaceOnUse" x="241" y="54" width="157" height="145">
<path d="M388.355 149.876L388.769 150.157L388.355 149.876C387.324 151.396 385.551 153.134 383.33 155.245C383.107 155.458 382.879 155.674 382.647 155.894C380.594 157.842 378.241 160.074 375.861 162.67C370.558 168.452 365.097 176.059 362.391 186.473C361.009 191.792 358.037 194.798 353.976 196.38C349.874 197.977 344.626 198.135 338.698 197.637C334.387 197.275 329.765 196.571 325.009 195.847C323.23 195.576 321.432 195.302 319.625 195.042C313.006 194.091 306.282 193.331 300.007 193.621C295.354 193.836 290.612 194.413 286.047 194.968C285.777 195.001 285.507 195.034 285.237 195.067C280.414 195.652 275.814 196.187 271.701 196.229C267.583 196.271 264.013 195.817 261.23 194.467C258.474 193.131 256.458 190.901 255.453 187.294C254.619 184.301 253.599 180.94 252.495 177.307C248.312 163.532 242.937 145.835 242.031 129.347C241.459 118.939 242.675 109.078 247.057 101.028C251.428 92.9977 258.978 86.7164 271.195 83.5053C274.783 82.5622 277.869 82.0495 281.004 81.5287C281.358 81.47 281.712 81.4111 282.067 81.3516C285.575 80.7639 289.207 80.1068 293.68 78.7757C302.624 76.1142 314.892 70.7695 336.308 57.9406C348.641 50.5531 367.912 55.4253 379.877 71.4976C388.799 83.4808 394.422 97.9289 396.058 111.964C397.694 126.002 395.338 139.585 388.355 149.876Z" fill="#BB2E29" stroke="white"/>
</mask>
<g mask="url(#mask0_308_1649)">
<rect x="436.233" y="139.802" width="13.7309" height="153.988" transform="rotate(143.934 436.233 139.802)" fill="#E5243B" stroke="white"/>
<rect x="427.783" y="145.956" width="13.7309" height="153.988" transform="rotate(143.934 427.783 145.956)" fill="#DDA63A" stroke="white"/>
<rect x="419.332" y="152.111" width="13.7309" height="153.988" transform="rotate(143.934 419.332 152.111)" fill="#4C9F38" stroke="white"/>
<rect x="410.881" y="158.265" width="13.7309" height="153.988" transform="rotate(143.934 410.881 158.265)" fill="#C5192D" stroke="white"/>
<rect x="402.431" y="164.42" width="13.7309" height="153.988" transform="rotate(143.934 402.431 164.42)" fill="#FF3A21" stroke="white"/>
<rect x="393.98" y="170.574" width="13.7309" height="153.988" transform="rotate(143.934 393.98 170.574)" fill="#26BDE2" stroke="white"/>
<rect x="385.53" y="176.729" width="13.7309" height="153.988" transform="rotate(143.934 385.53 176.729)" fill="#FCC30B" stroke="white"/>
<rect x="377.079" y="182.884" width="13.7309" height="153.988" transform="rotate(143.934 377.079 182.884)" fill="#A21942" stroke="white"/>
<rect x="368.629" y="189.038" width="13.7309" height="153.988" transform="rotate(143.934 368.629 189.038)" fill="#FD6925" stroke="white"/>
<rect x="360.178" y="195.193" width="13.7309" height="153.988" transform="rotate(143.934 360.178 195.193)" fill="#DD1367" stroke="white"/>
<rect x="351.728" y="201.347" width="13.7309" height="153.988" transform="rotate(143.934 351.728 201.347)" fill="#FD9D24" stroke="white"/>
<rect x="343.277" y="207.502" width="13.7309" height="153.988" transform="rotate(143.934 343.277 207.502)" fill="#BF8B2E" stroke="white"/>
<rect x="334.826" y="213.656" width="13.7309" height="153.988" transform="rotate(143.934 334.826 213.656)" fill="#3F7E44" stroke="white"/>
<rect x="326.376" y="219.811" width="13.7309" height="153.988" transform="rotate(143.934 326.376 219.811)" fill="#0A97D9" stroke="white"/>
<rect x="317.925" y="225.966" width="13.7309" height="153.988" transform="rotate(143.934 317.925 225.966)" fill="#56C02B" stroke="white"/>
</g>
<path fill-rule="evenodd" clip-rule="evenodd" d="M80.6729 32.5361C-2.0582 12.4194 -13.458 118.372 -23.8438 163.805C-29.2855 187.609 7.7473 193.83 37.3612 207.678C74.9343 225.248 110.452 271.416 135.772 245.678C159.618 221.436 190.96 220.835 202.123 215.46C239.071 197.669 258.506 147.267 250.721 100.29C245.486 68.702 220.596 46.7397 196.155 47.4321C113.255 49.7789 107.628 39.09 80.6729 32.5361Z" fill="white"/>
<path d="M93.8121 181.265C94.7386 177.212 95.6994 172.612 96.7384 167.638C100.679 148.775 105.743 124.534 114.315 104.343C119.73 91.5909 126.508 80.5488 135.208 73.5205C143.87 66.5229 154.472 63.4732 167.68 66.7445C171.571 67.7084 174.748 68.8911 177.992 70.0993C178.358 70.2354 178.724 70.3717 179.092 70.5081C182.728 71.8552 186.533 73.1968 191.52 74.2235C201.488 76.2761 216.102 77.0565 243.566 74.2525L243.49 73.5064L243.566 74.2525C251.34 73.4586 259.027 77.2334 265.064 84.5349C271.101 91.8355 275.446 102.622 276.474 115.678C278.009 135.172 275.036 155.687 268.55 173.383C262.06 191.091 252.081 205.898 239.671 214.075C237.854 215.272 235.219 216.301 231.922 217.525C231.59 217.648 231.252 217.773 230.909 217.9C227.868 219.025 224.374 220.317 220.647 222.026C212.335 225.839 202.842 231.736 194.343 242.58C190.004 248.117 185.551 249.897 180.964 249.428C176.288 248.95 171.324 246.124 166.044 242.076C162.209 239.136 158.279 235.611 154.228 231.977C152.71 230.614 151.174 229.237 149.62 227.869C143.944 222.874 138.042 218.028 131.951 214.698C127.444 212.234 122.648 210.151 118.044 208.152C117.77 208.032 117.497 207.914 117.224 207.795C112.355 205.679 107.746 203.64 103.877 201.303C100.008 198.966 96.9496 196.37 95.1283 193.177C93.3215 190.008 92.6892 186.177 93.8121 181.265Z" stroke="black" stroke-width="1.5"/>
</svg>
