<svg width="231" height="232" viewBox="0 0 231 232" fill="none" xmlns="http://www.w3.org/2000/svg">
<g clip-path="url(#clip0_125_775)">
<path fill-rule="evenodd" clip-rule="evenodd" d="M-57.7166 26.0255C-133.795 60.8013 -147.133 129.205 -105.276 144.444C-73.0764 181.192 -45.7233 127.055 -19.1304 58.6806L-57.7166 26.0255Z" fill="white" stroke="black" stroke-width="1.5" stroke-miterlimit="1.5" stroke-linecap="round" stroke-linejoin="round"/>
</g>
<g clip-path="url(#clip1_125_775)">
<path fill-rule="evenodd" clip-rule="evenodd" d="M-23.5517 66.1413C-54.5283 141.401 -21.7281 202.235 16.4051 187.11C61.0945 194.608 46.6861 135.717 23.0184 66.4251L-23.5517 66.1413Z" fill="white" stroke="black" stroke-width="1.5" stroke-miterlimit="1.5" stroke-linecap="round" stroke-linejoin="round"/>
<path fill-rule="evenodd" clip-rule="evenodd" d="M16.405 187.11C18.2168 185.5 18.9555 183.599 18.8038 181.458Z" fill="white"/>
<path d="M16.405 187.11C18.2168 185.5 18.9555 183.599 18.8038 181.458" stroke="black" stroke-width="1.5" stroke-miterlimit="1.5" stroke-linecap="round" stroke-linejoin="round"/>
</g>
<g clip-path="url(#clip2_125_775)">
<path fill-rule="evenodd" clip-rule="evenodd" d="M17.1847 76.1079C65.8563 150.921 139.766 164.916 149.053 124.239C182.455 93.3011 121.272 65.8159 45.2699 38.8726L17.1847 76.1079Z" fill="white" stroke="black" stroke-width="1.5" stroke-miterlimit="1.5" stroke-linecap="round" stroke-linejoin="round"/>
<path fill-rule="evenodd" clip-rule="evenodd" d="M149.053 124.239C148.699 121.716 147.443 119.861 145.442 118.563Z" fill="white"/>
<path d="M149.053 124.239C148.699 121.716 147.443 119.861 145.442 118.563" stroke="black" stroke-width="1.5" stroke-miterlimit="1.5" stroke-linecap="round" stroke-linejoin="round"/>
</g>
<g clip-path="url(#clip3_125_775)">
<path fill-rule="evenodd" clip-rule="evenodd" d="M64.1442 44.91C141.176 77.7638 203.281 46.0481 187.709 7.29876C195.25 -37.5611 143.974 -38.9672 76.1922 -1.0419L64.1442 44.91Z" stroke="black" stroke-width="1.5" stroke-miterlimit="1.5" stroke-linecap="round" stroke-linejoin="round"/>
<path d="M187.709 7.2988C186.058 5.43831 184.112 4.65248 181.924 4.75853" stroke="black" stroke-width="1.5" stroke-miterlimit="1.5" stroke-linecap="round" stroke-linejoin="round"/>
</g>
<g clip-path="url(#clip4_125_775)">
<path fill-rule="evenodd" clip-rule="evenodd" d="M72.121 1.48993C147.057 -35.5381 157.01 -104.955 114.025 -119.295C79.6796 -155.6 54.8651 -100.241 31.5447 -30.5216L72.121 1.48993Z" stroke="black" stroke-width="1.5" stroke-miterlimit="1.5" stroke-linecap="round" stroke-linejoin="round"/>
</g>
<g clip-path="url(#clip5_125_775)">
<path fill-rule="evenodd" clip-rule="evenodd" d="M-26.4036 -38.1603C-55.8563 -145.077 -126.192 -145.973 -140.264 -103.205C-178.276 -71.2063 -117.835 -40.9503 -41.9688 -10.9684L-26.4036 -38.1603Z" stroke="black" stroke-width="1.5" stroke-miterlimit="1.5" stroke-linecap="round" stroke-linejoin="round"/>
</g>
<ellipse cx="68.8102" cy="67.0581" rx="68.8102" ry="67.0581" transform="matrix(-0.974919 -0.222561 -0.222561 0.974919 90.876 -40.5287)" fill="#F0EDE8"/>
<path d="M-48.6093 -2.81522C-55.5517 27.5956 -35.8846 58.0566 -4.6326 65.1911C26.6194 72.3255 57.557 53.4169 64.4994 23.006C71.4418 -7.40478 51.7746 -37.8658 20.5227 -45.0002C-10.7293 -52.1347 -41.6669 -33.226 -48.6093 -2.81522Z" stroke="white" stroke-width="1.5"/>
<path d="M-36.9561 5.63585C-43.0062 32.1384 -25.8669 58.6889 1.37461 64.9078C28.6162 71.1267 55.5793 54.6442 61.6295 28.1417C67.6797 1.63918 50.5404 -24.9113 23.2989 -31.1302C-3.9427 -37.3491 -30.9059 -20.8666 -36.9561 5.63585Z" stroke="white" stroke-width="1.5"/>
<path d="M-44.1273 -0.137534C-50.6731 28.5362 -32.1295 57.2593 -2.65991 63.9868C26.8097 70.7143 55.9808 52.884 62.5267 24.2102C69.0725 -4.46359 50.5289 -33.1866 21.0593 -39.9141C-8.41023 -46.6417 -37.5814 -28.8113 -44.1273 -0.137534Z" stroke="white" stroke-width="1.5"/>
<path d="M-36.9564 5.63581C-42.0152 27.7957 -27.6846 50.0012 -4.89912 55.2029C17.8864 60.4045 40.4336 46.6177 45.4924 24.4578C50.5512 2.2979 36.2206 -19.9076 13.4351 -25.1092C-9.3504 -30.3109 -31.8976 -16.5241 -36.9564 5.63581Z" stroke="white" stroke-width="1.5"/>
<path d="M-31.2197 10.2545C-35.882 30.6774 -22.6749 51.1449 -1.6718 55.9396C19.3313 60.7344 40.1121 48.0259 44.7744 27.603C49.4366 7.1801 36.2295 -13.2874 15.2264 -18.0821C-5.77666 -22.8769 -26.5575 -10.1684 -31.2197 10.2545Z" stroke="white" stroke-width="1.5"/>
<path d="M-24.5855 10.9417C-28.3556 27.4563 -17.6763 44.0133 -0.683638 47.8925C16.309 51.7717 33.1154 41.4893 36.8855 24.9748C40.6555 8.46021 29.9762 -8.09679 12.9836 -11.976C-4.00907 -15.8552 -20.8155 -5.57283 -24.5855 10.9417Z" stroke="white" stroke-width="1.5"/>
<path d="M-18.131 12.4153C-21.108 25.4558 -12.6756 38.5368 0.752209 41.6022C14.18 44.6676 27.4536 36.5418 30.4306 23.5013C33.4076 10.4608 24.9752 -2.62018 11.5474 -5.68558C-1.8804 -8.75097 -15.154 -0.62517 -18.131 12.4153Z" stroke="white" stroke-width="1.5"/>
<path d="M-30.3223 6.32304C-35.4803 28.9172 -20.8688 51.5572 2.36229 56.8606C25.5934 62.164 48.5822 48.1076 53.7401 25.5134C58.8981 2.91925 44.2866 -19.7208 21.0555 -25.0241C-2.17558 -30.3275 -25.1644 -16.2711 -30.3223 6.32304Z" stroke="white" stroke-width="1.5"/>
<defs>
<clipPath id="clip0_125_775">
<rect width="110.843" height="125.873" fill="white" transform="matrix(0.746666 0.6652 0.681532 -0.731789 -151.672 107.466)"/>
</clipPath>
<clipPath id="clip1_125_775">
<rect width="102.209" height="125.334" fill="white" transform="matrix(0.999436 0.0335695 0.0197148 -0.999806 -38.1882 188.517)"/>
</clipPath>
<clipPath id="clip2_125_775">
<rect width="102.374" height="139.386" fill="white" transform="matrix(0.626256 -0.779618 -0.791958 -0.610576 117.683 169.044)"/>
</clipPath>
<clipPath id="clip3_125_775">
<rect width="102.892" height="128.229" fill="white" transform="matrix(0.0312955 -0.99951 -0.999168 -0.0407777 189.302 62.3315)"/>
</clipPath>
<clipPath id="clip4_125_775">
<rect width="113.346" height="125.494" fill="white" transform="matrix(-0.769497 -0.63865 -0.651775 0.758412 162.698 -83.1137)"/>
</clipPath>
<clipPath id="clip5_125_775">
<rect width="111.989" height="139.794" fill="white" transform="matrix(-0.671426 0.741072 0.752332 0.658785 -101.92 -151.501)"/>
</clipPath>
</defs>
</svg>
