<svg width="201" height="190" viewBox="0 0 201 190" fill="none" xmlns="http://www.w3.org/2000/svg">
<path fill-rule="evenodd" clip-rule="evenodd" d="M352.465 224.416C404.5 133.347 275.101 72.7143 221.393 40.0721C193.253 22.9689 173.458 64.9652 146.482 94.6237C112.256 132.253 42.7726 154.752 66.9111 196.729C89.6464 236.264 80.2609 274.401 83.4012 290.266C93.7933 342.779 150.816 388.554 212.343 399.923C253.714 407.568 289.354 387.205 296.392 357.367C320.265 256.159 335.512 254.087 352.465 224.416Z" fill="white"/>
<path fill-rule="evenodd" clip-rule="evenodd" d="M157.343 92.7162C92.033 109.329 121.5 195.007 130.268 233.875C134.862 254.24 163.112 244.668 188.841 243.82C221.486 242.744 262.804 264.398 271.507 234.851C279.704 207.022 301.537 194.422 307.487 185.977C327.183 158.022 323.021 111.837 300.925 78.8224C286.067 56.6225 260.789 49.4181 243.843 59.4149C186.361 93.3221 178.622 87.3032 157.343 92.7162Z" fill="#C5192D"/>
<path d="M137.867 222.08C136.948 218.005 135.805 213.429 134.57 208.483C129.89 189.737 123.879 165.664 123.644 143.314C123.495 129.206 125.653 115.883 131.839 105.079C138.008 94.306 148.227 85.9581 164.372 81.8512C169.117 80.6443 173.18 80.0104 177.313 79.3656C177.779 79.293 178.245 79.2202 178.714 79.1465C183.339 78.4183 188.134 77.5979 194.07 75.8795C205.937 72.4438 222.306 65.4359 251.071 48.4676C267.572 38.7337 292.461 45.6707 307.182 67.6657C318.159 84.0667 324.681 103.742 326.012 122.78C327.344 141.823 323.479 160.162 313.765 173.951C312.335 175.981 309.923 178.293 306.894 181.113C306.589 181.397 306.278 181.686 305.962 181.979C303.164 184.578 299.954 187.559 296.688 191.032C289.41 198.772 281.817 208.985 277.672 223.059C275.563 230.217 271.52 234.207 266.147 236.259C260.71 238.335 253.853 238.449 246.129 237.659C240.512 237.084 234.509 236.042 228.329 234.968C226.016 234.566 223.678 234.16 221.326 233.773C212.72 232.355 203.957 231.192 195.72 231.464C189.616 231.665 183.375 232.355 177.37 233.018C177.014 233.057 176.658 233.097 176.303 233.136C169.958 233.835 163.913 234.469 158.535 234.446C153.15 234.423 148.522 233.739 144.976 231.865C141.469 230.012 138.97 226.969 137.867 222.08Z" stroke="black" stroke-width="1.5"/>
</svg>
