<?xml version="1.0" encoding="UTF-8" standalone="no"?>
<!DOCTYPE svg PUBLIC "-//W3C//DTD SVG 1.1//EN" "http://www.w3.org/Graphics/SVG/1.1/DTD/svg11.dtd">
<svg width="100%" height="100%" viewBox="0 0 201 190" version="1.1" xmlns="http://www.w3.org/2000/svg" xmlns:xlink="http://www.w3.org/1999/xlink" xml:space="preserve" xmlns:serif="http://www.serif.com/" style="fill-rule:evenodd;clip-rule:evenodd;">
    <path d="M310.592,96.606C323.746,126.979 323.843,162.763 307.487,185.977C301.537,194.422 279.704,207.022 271.507,234.851C262.804,264.398 221.486,242.744 188.841,243.82C163.112,244.668 134.862,254.24 130.268,233.875C123.439,203.605 104.056,144.943 126.668,112.621C91.391,140.44 46.864,161.867 66.911,196.729C89.646,236.264 80.261,274.401 83.401,290.266C93.793,342.779 150.816,388.554 212.343,399.923C253.714,407.568 289.354,387.205 296.392,357.367C320.265,256.159 335.512,254.087 352.465,224.416C382.52,171.815 352.046,129.367 310.592,96.606ZM143.178,98.104C147.315,95.887 152.014,94.072 157.343,92.716C178.622,87.303 186.361,93.322 243.843,59.415C245.751,58.289 247.765,57.382 249.856,56.69C239.247,50.517 229.465,44.978 221.393,40.072C193.253,22.969 173.458,64.965 146.482,94.624C145.414,95.798 144.312,96.957 143.178,98.104Z" style="fill:white;"/>
    <path d="M137.867,222.08C136.948,218.005 135.805,213.429 134.57,208.483C129.89,189.737 123.879,165.664 123.644,143.314C123.495,129.206 125.653,115.883 131.839,105.079C138.008,94.306 148.227,85.958 164.372,81.851C169.117,80.644 173.18,80.01 177.313,79.366C177.779,79.293 178.245,79.22 178.714,79.147C183.339,78.418 188.134,77.598 194.07,75.879C205.937,72.444 222.306,65.436 251.071,48.468C267.572,38.734 292.461,45.671 307.182,67.666C318.159,84.067 324.681,103.742 326.012,122.78C327.344,141.823 323.479,160.162 313.765,173.951C312.335,175.981 309.923,178.293 306.894,181.113C306.589,181.397 306.278,181.686 305.962,181.979C303.164,184.578 299.954,187.559 296.688,191.032C289.41,198.772 281.817,208.985 277.672,223.059C275.563,230.217 271.52,234.207 266.147,236.259C260.71,238.335 253.853,238.449 246.129,237.659C240.512,237.084 234.509,236.042 228.329,234.968C226.016,234.566 223.678,234.16 221.326,233.773C212.72,232.355 203.957,231.192 195.72,231.464C189.616,231.665 183.375,232.355 177.37,233.018C177.014,233.057 176.658,233.097 176.303,233.136C169.958,233.835 163.913,234.469 158.535,234.446C153.15,234.423 148.522,233.739 144.976,231.865C141.469,230.012 138.97,226.969 137.867,222.08Z" style="fill:none;fill-rule:nonzero;stroke:black;stroke-width:1.5px;"/>
</svg>
