<svg width="159" height="121" viewBox="0 0 159 121" fill="none" xmlns="http://www.w3.org/2000/svg">
<path fill-rule="evenodd" clip-rule="evenodd" d="M1.553 37.683C-58.2963 5.16479 -92.0975 91.1971 -110.883 127.04C-120.725 145.82 -93.2807 158.058 -73.4197 175.232C-48.2208 197.022 -31.3478 242.228 -5.53465 225.627C18.7769 209.991 43.383 215.466 53.3595 213.119C86.3816 205.352 113.399 167.097 118.363 126.505C121.701 99.2095 107.434 76.1809 88.194 72.0983C22.9326 58.2487 21.0528 48.2776 1.553 37.683Z" fill="#F0EDE8"/>
<path d="M118.323 62.2616L118.115 61.5411L118.323 62.2616C130.299 58.7942 145.47 67.2825 151.971 83.7986C156.826 96.1329 158.324 109.828 156.534 122.25C154.743 134.678 149.672 145.767 141.455 152.968L141.95 153.532L141.455 152.968C140.262 154.014 138.389 155.087 136.01 156.4C135.771 156.532 135.528 156.666 135.28 156.802C133.09 158.008 130.569 159.395 127.943 161.09C122.086 164.869 115.663 170.201 110.958 178.611C108.618 182.795 105.489 184.639 101.775 185.056C97.9936 185.48 93.5455 184.429 88.6204 182.638C85.0419 181.337 81.28 179.672 77.3984 177.954C75.9425 177.31 74.4698 176.658 72.9835 176.016C67.5605 173.67 61.9835 171.456 56.5425 170.254C52.5192 169.366 48.3386 168.769 44.3271 168.197C44.0881 168.162 43.8496 168.128 43.6119 168.094C39.3683 167.488 35.3462 166.891 31.8537 165.985C28.3544 165.078 25.4727 163.879 23.4633 162.122C21.4879 160.395 20.3128 158.091 20.2779 154.833C20.2482 152.049 20.1427 148.909 20.0288 145.517C19.5978 132.681 19.0458 116.242 22.0146 101.862C23.8881 92.7867 27.1491 84.6284 32.6568 78.7569C38.1406 72.9108 45.9131 69.2659 56.9688 69.3116C60.2234 69.325 62.9539 69.5925 65.7435 69.8657C66.0576 69.8965 66.3725 69.9274 66.6889 69.9579C69.8141 70.2597 73.0721 70.5314 77.204 70.4137C85.4639 70.1785 97.1557 68.3895 118.323 62.2616Z" stroke="black" stroke-width="1.5"/>
</svg>
