<svg width="443" height="159" viewBox="0 0 443 159" fill="none" xmlns="http://www.w3.org/2000/svg">
<path fill-rule="evenodd" clip-rule="evenodd" d="M376.711 84.8452C540.632 145.123 586.758 -62.8229 617.718 -150.644C633.94 -196.659 559.962 -218.102 502.724 -252.9C430.104 -297.05 367.855 -397.578 310.782 -352.587C257.03 -310.211 193.149 -316.693 169.281 -308.737C90.2761 -282.403 39.8329 -186.914 45.498 -91.5707C49.3072 -27.46 95.1808 22.3198 145.043 26.9295C314.172 42.5686 323.303 65.2069 376.711 84.8452Z" fill="#F0EDE8"/>
<path d="M236.518 -308.025L236.281 -308.737L236.518 -308.025C242.396 -309.985 250.779 -311.065 260.987 -312.241C262.02 -312.36 263.07 -312.48 264.138 -312.602C273.594 -313.681 284.399 -314.914 295.959 -317.017C321.698 -321.7 351.239 -330.706 378.246 -351.998C392.322 -363.094 406.671 -365.207 421.455 -361.473C436.292 -357.726 451.591 -348.08 467.459 -335.582C479.01 -326.484 490.812 -315.916 502.923 -305.071C507.447 -301.021 512.014 -296.932 516.627 -292.866C533.571 -277.931 551.12 -263.333 569.335 -252.259C582.872 -244.029 597.34 -236.547 611.308 -229.323C612.132 -228.897 612.955 -228.471 613.776 -228.047C628.513 -220.421 642.585 -213.057 654.358 -205.351C666.139 -197.639 675.543 -189.63 681.004 -180.748C686.439 -171.907 687.988 -162.175 684.011 -150.893C680.777 -141.72 677.382 -131.253 673.708 -119.928C659.761 -76.927 641.804 -21.5661 613.445 22.2299C595.543 49.8771 573.542 72.8344 545.864 85.1441C518.209 97.4436 484.796 99.154 443.97 84.1413C432.003 79.7411 422.268 75.1912 412.421 70.5894C411.311 70.0703 410.199 69.5506 409.082 69.0304C398.065 63.8984 386.601 58.7246 371.51 53.6764C341.333 43.581 296.703 34.0047 212.112 26.1827C162.69 21.6138 117.038 -27.7978 113.247 -91.6152C107.595 -186.735 157.933 -281.831 236.518 -308.025Z" stroke="black" stroke-width="1.5"/>
</svg>
