<svg width="284" height="150" viewBox="0 0 284 150" fill="none" xmlns="http://www.w3.org/2000/svg">
<path fill-rule="evenodd" clip-rule="evenodd" d="M163.626 -151.984C89.1994 -193.334 50.0912 -94.2056 28.0211 -53.1579C16.4573 -31.6506 50.5115 -15.8258 75.3887 5.38452C106.952 32.2955 128.945 86.2341 160.187 68.1376C189.611 51.0931 219.989 58.8311 232.178 56.6109C272.522 49.2638 304.636 5.82629 309.597 -41.5323C312.932 -73.3771 294.762 -101.157 271.014 -106.976C190.463 -126.713 187.875 -138.512 163.626 -151.984Z" fill="#E8E1D7"/>
<mask id="mask0_302_1653" style="mask-type:alpha" maskUnits="userSpaceOnUse" x="219" y="-44" width="129" height="150">
<path d="M247.754 -41.9365C250.575 -41.9542 253.754 -42.0511 257.188 -42.1557C270.178 -42.5517 286.809 -43.0586 301.49 -39.8052C310.752 -37.7527 319.142 -34.2188 325.304 -28.2845C331.445 -22.371 335.445 -14.0052 335.819 -2.13392C335.929 1.35747 335.762 4.28572 335.591 7.27272C335.571 7.60917 335.552 7.94637 335.533 8.2852C335.346 11.6306 335.195 15.115 335.47 19.5362C336.022 28.3752 338.276 40.9018 345.288 63.6079L346.004 63.4131L345.288 63.6079C349.278 76.5277 341.199 92.7552 324.728 99.6271C300.049 109.924 269.498 105.713 254.254 88.0021C253.145 86.7129 251.983 84.695 250.563 82.1404C250.42 81.8838 250.275 81.6224 250.128 81.3565C248.823 79.0039 247.323 76.2983 245.507 73.4773C241.459 67.1903 235.817 60.285 227.118 55.203C222.79 52.6742 220.784 49.3003 220.216 45.2846C219.64 41.2081 220.541 36.4309 222.17 31.1619C223.353 27.332 224.899 23.3065 226.492 19.1559C227.09 17.6 227.694 16.0264 228.288 14.439C230.459 8.64137 232.488 2.68397 233.498 -3.13042C234.245 -7.43277 234.691 -11.9054 235.119 -16.2009C235.144 -16.4565 235.17 -16.7115 235.195 -16.9658C235.649 -21.5082 236.101 -25.8194 236.887 -29.562C237.676 -33.313 238.784 -36.4063 240.495 -38.5592C242.177 -40.675 244.467 -41.916 247.754 -41.9365Z" fill="#BB2E29" stroke="black" stroke-width="1.5"/>
</mask>
<g mask="url(#mask0_302_1653)">
<rect x="253.461" y="133.929" width="12.523" height="137.47" transform="rotate(-112.008 253.461 133.929)" fill="#E5243B" stroke="white" stroke-width="1.5"/>
<rect x="249.732" y="124.702" width="12.523" height="137.47" transform="rotate(-112.008 249.732 124.702)" fill="#DDA63A" stroke="white" stroke-width="1.5"/>
<rect x="246.002" y="115.476" width="12.523" height="137.47" transform="rotate(-112.008 246.002 115.476)" fill="#4C9F38" stroke="white" stroke-width="1.5"/>
<rect x="242.273" y="106.249" width="12.523" height="137.47" transform="rotate(-112.008 242.273 106.249)" fill="#C5192D" stroke="white" stroke-width="1.5"/>
<rect x="238.544" y="97.0225" width="12.523" height="137.47" transform="rotate(-112.008 238.544 97.0225)" fill="#FF3A21" stroke="white" stroke-width="1.5"/>
<rect x="234.814" y="87.796" width="12.523" height="137.47" transform="rotate(-112.008 234.814 87.796)" fill="#26BDE2" stroke="white" stroke-width="1.5"/>
<rect x="231.085" y="78.5693" width="12.523" height="137.47" transform="rotate(-112.008 231.085 78.5693)" fill="#FCC30B" stroke="white" stroke-width="1.5"/>
<rect x="227.355" y="69.3425" width="12.523" height="137.47" transform="rotate(-112.008 227.355 69.3425)" fill="#A21942" stroke="white" stroke-width="1.5"/>
<rect x="223.626" y="60.116" width="12.523" height="137.47" transform="rotate(-112.008 223.626 60.116)" fill="#FD6925" stroke="white" stroke-width="1.5"/>
<rect x="219.897" y="50.8895" width="12.523" height="137.47" transform="rotate(-112.008 219.897 50.8895)" fill="#DD1367" stroke="white" stroke-width="1.5"/>
<rect x="216.168" y="41.6631" width="12.523" height="137.47" transform="rotate(-112.008 216.168 41.6631)" fill="#FD9D24" stroke="white" stroke-width="1.5"/>
<rect x="212.438" y="32.4366" width="12.523" height="137.47" transform="rotate(-112.008 212.438 32.4366)" fill="#BF8B2E" stroke="white" stroke-width="1.5"/>
<rect x="208.709" y="23.2096" width="12.523" height="137.47" transform="rotate(-112.008 208.709 23.2096)" fill="#3F7E44" stroke="white" stroke-width="1.5"/>
<rect x="204.979" y="13.9831" width="12.523" height="137.47" transform="rotate(-112.008 204.979 13.9831)" fill="#0A97D9" stroke="white" stroke-width="1.5"/>
<rect x="201.25" y="4.75639" width="12.523" height="137.47" transform="rotate(-112.008 201.25 4.75639)" fill="#56C02B" stroke="white" stroke-width="1.5"/>
</g>
<path d="M294.973 -90.3719C296.572 -86.5343 298.461 -82.2316 300.504 -77.5791C308.25 -59.9348 318.204 -37.2593 322.951 -15.8428C325.949 -2.31746 326.843 10.608 323.841 21.3822C320.853 32.1094 313.993 40.7488 301.341 45.7556C297.613 47.231 294.34 48.1126 290.997 49.0133C290.621 49.1147 290.244 49.2163 289.865 49.3191C286.122 50.3339 282.245 51.4515 277.59 53.5113C268.283 57.629 255.931 65.4808 235.202 83.7121L235.697 84.2753L235.202 83.7121C229.334 88.8731 220.884 90.2637 211.729 87.8257C202.574 85.3881 192.773 79.1292 184.355 69.0976C171.784 54.1189 162.291 35.6917 157.295 17.5186C152.295 -0.666916 151.82 -18.5161 157.175 -32.3801C157.959 -34.4099 159.507 -36.7779 161.48 -39.6885C161.678 -39.9814 161.881 -40.2793 162.087 -40.5823C163.909 -43.2633 166.003 -46.3441 168.045 -49.9004C172.597 -57.8312 176.901 -68.1454 177.523 -81.9085C177.84 -88.9364 180.431 -92.9712 184.438 -95.253C188.523 -97.5792 194.205 -98.1613 200.854 -97.932C205.684 -97.7656 210.93 -97.1778 216.338 -96.5718C218.365 -96.3447 220.416 -96.1149 222.475 -95.9039C229.997 -95.1333 237.616 -94.616 244.508 -95.4422C249.608 -96.0536 254.722 -97.1429 259.631 -98.1885C259.924 -98.2508 260.215 -98.3129 260.506 -98.3747C265.699 -99.4789 270.635 -100.496 275.142 -100.84C279.649 -101.185 283.646 -100.847 286.984 -99.305C290.294 -97.7752 293.034 -95.0228 294.973 -90.3719Z" stroke="black" stroke-width="1.5"/>
</svg>
