<svg width="93" height="218" viewBox="0 0 93 218" fill="none" xmlns="http://www.w3.org/2000/svg">
<path fill-rule="evenodd" clip-rule="evenodd" d="M27.9607 98.8025C94.7019 50.8271 24.2324 -24.1228 -2.52969 -60.2897C-16.552 -79.2398 -44.3869 -56.0144 -73.1478 -43.0195C-109.639 -26.5321 -165.793 -29.5262 -162.848 5.20433C-160.074 37.9147 -179.334 61.258 -182.411 72.8157C-192.6 111.071 -167.885 156.992 -128.569 180.816C-102.133 196.835 -70.3957 192.401 -55.5409 174.057C-5.15296 111.838 6.21584 114.434 27.9607 98.8025Z" fill="#F0EDE8"/>
<path d="M-13.0148 -41.6467C-10.2472 -40.2113 -7.08595 -38.6638 -3.67055 -36.9917C9.2588 -30.6621 25.8308 -22.5492 38.4856 -11.9936C46.4718 -5.33207 52.8198 2.24393 55.7018 10.8757C58.5732 19.4756 58.0336 29.2104 52.0836 40.2836C50.3335 43.5408 48.6111 46.1387 46.8543 48.7884C46.6564 49.0868 46.4581 49.386 46.2593 49.6868C44.296 52.6566 42.2941 55.7719 40.2118 59.9659C36.0488 68.3504 31.5908 80.9923 26.3749 105.416C23.4077 119.312 6.85754 130.047 -12.9731 127.854C-27.7784 126.217 -42.1409 120.498 -53.4888 112.154C-64.841 103.806 -73.1274 92.869 -75.8801 80.8184C-76.282 79.0593 -76.3451 76.607 -76.3764 73.5353C-76.3795 73.2266 -76.3824 72.9123 -76.3853 72.5926C-76.4109 69.7641 -76.4403 66.5123 -76.7174 62.9923C-77.3349 55.1463 -79.1849 45.921 -84.988 36.7964C-87.8953 32.2251 -88.0587 28.0856 -86.478 24.1123C-84.8726 20.077 -81.4465 16.1616 -77.0474 12.1702C-73.85 9.26918 -70.194 6.37507 -66.4251 3.39157C-65.0124 2.27327 -63.5839 1.14242 -62.1577 -0.00606816C-56.9479 -4.20133 -51.7921 -8.61514 -47.7107 -13.423C-44.6902 -16.9811 -41.8744 -20.8507 -39.1698 -24.5674C-39.0089 -24.7886 -38.8483 -25.0092 -38.6882 -25.2292C-35.827 -29.1588 -33.0899 -32.8778 -30.3278 -35.9036C-27.5606 -38.9349 -24.8264 -41.2038 -21.9955 -42.299C-19.2074 -43.3775 -16.276 -43.3379 -13.0148 -41.6467Z" stroke="black" stroke-width="1.5"/>
</svg>
