<?xml version="1.0" encoding="UTF-8" standalone="no"?>
<!DOCTYPE svg PUBLIC "-//W3C//DTD SVG 1.1//EN" "http://www.w3.org/Graphics/SVG/1.1/DTD/svg11.dtd">
<svg width="100%" height="100%" viewBox="0 0 76 70" version="1.1" xmlns="http://www.w3.org/2000/svg" xmlns:xlink="http://www.w3.org/1999/xlink" xml:space="preserve" xmlns:serif="http://www.serif.com/" style="fill-rule:evenodd;clip-rule:evenodd;stroke-linejoin:round;stroke-miterlimit:2;">
    <g transform="matrix(1,0,0,1,-6656.37,-346.079)">
        <g transform="matrix(0.4282,0,0,0.346067,4189.94,0)">
            <g transform="matrix(2.33536,0,0,2.88961,-9829.61,318.914)">
                <path d="M6686.65,271.215C6686.54,271.149 6686.6,274.052 6686.6,274.237L6686.68,297.657C6686.68,297.657 6686.68,297.745 6686.69,297.776C6686.7,297.803 6686.73,297.819 6686.75,297.841C6686.76,297.846 6686.76,297.851 6686.77,297.857C6698.33,308.55 6726.88,308.228 6738.92,297.503C6739,297.434 6739.15,297.293 6739.15,297.293C6739.39,297.076 6739.38,296.923 6739.4,296.65L6739.29,270.619C6739.29,270.329 6739.26,270.342 6739.05,270.466L6721.76,281.489C6718.42,284.287 6709.21,285.564 6703.83,281.721C6703.83,281.721 6693.22,275.012 6686.68,271.231C6686.67,271.225 6686.65,271.215 6686.65,271.215ZM6676.12,257.23C6675.19,257.612 6675.36,258.588 6675.98,258.847L6706.4,278.749C6710.85,281.33 6714.94,280.776 6718.9,279.095L6744.86,262.24C6744.97,262.169 6744.98,262.216 6744.98,262.401L6745.07,296.585C6745.07,296.72 6745.11,296.753 6745.23,296.76L6750.99,296.726C6751.36,296.719 6751.45,296.664 6751.42,296.332L6751.38,258.527C6751.37,258.11 6751.35,258.11 6751.15,257.956L6718.58,236.934C6715.87,235.635 6710.64,234.678 6706.02,237.836L6676.12,257.23ZM6711.65,274.216C6712.82,274.423 6713.89,274.373 6714.94,274.054L6724.4,248.708L6721.49,246.852L6711.65,274.216ZM6710.93,274.06C6711.17,274.122 6711.41,274.174 6711.65,274.216L6710.93,274.06ZM6712.33,242.543C6711.48,242.645 6710.61,242.969 6709.61,243.531L6686.31,257.922C6685.24,258.378 6685.31,258.839 6686.25,259.319L6708.48,272.932L6718.69,245.064L6716.86,243.89C6716.39,243.603 6715.94,243.358 6715.51,243.159L6705.49,271.105L6702.55,269.302L6712.33,242.543ZM6718.33,272.236L6722.5,269.588L6730.26,252.453L6727.2,250.5L6718.33,272.236ZM6703.59,247.25L6696.82,265.796L6699.79,267.61L6708.27,244.358L6703.59,247.25ZM6727.47,266.432L6731.69,263.755L6735.46,255.782L6733.05,254.236L6727.47,266.432ZM6690.63,262.001L6694.15,253.08L6698.77,250.226L6693.52,263.768L6690.63,262.001ZM6737.58,257.133L6735.31,261.462L6739.24,258.966C6739.53,258.758 6739.57,258.501 6739.2,258.169L6737.58,257.133Z" style="fill:white;"/>
            </g>
        </g>
    </g>
</svg>
