<?xml version="1.0" encoding="UTF-8" standalone="no"?>
<!DOCTYPE svg PUBLIC "-//W3C//DTD SVG 1.1//EN" "http://www.w3.org/Graphics/SVG/1.1/DTD/svg11.dtd">
<svg width="100%" height="100%" viewBox="0 0 67 72" version="1.1" xmlns="http://www.w3.org/2000/svg" xmlns:xlink="http://www.w3.org/1999/xlink" xml:space="preserve" xmlns:serif="http://www.serif.com/" style="fill-rule:evenodd;clip-rule:evenodd;stroke-linejoin:round;stroke-miterlimit:2;">
    <g transform="matrix(1,0,0,1,-6639.17,-434.894)">
        <g transform="matrix(0.4282,0,0,0.346067,4197.29,0)">
            <g transform="matrix(2.6367,0,0,3.26406,-13226.2,-797.241)">
                <path d="M7220.86,643.357C7222.33,643.326 7222.32,643.908 7222.33,644.595L7222.19,690.133C7222.11,691.803 7221.54,692.626 7219.51,692.516C7219.51,692.516 7191.74,692.53 7180.67,692.582C7179.3,692.59 7179,692.18 7179.01,691.008C7179.06,683.322 7179.03,675.636 7179.03,667.95C7179.03,666.515 7179.03,665.08 7179.03,663.645L7179.04,660.776C7179.04,655.515 7179.04,650.254 7179,644.994C7178.99,643.714 7179.44,643.388 7180.79,643.392C7193.68,643.434 7206.58,643.484 7219.48,643.358C7219.52,643.357 7220.86,643.357 7220.86,643.357ZM7183.05,648.697C7183.1,655.733 7183.02,680.439 7182.98,687.441C7182.97,688.437 7183.27,688.703 7184.34,688.699C7196.05,688.667 7217.43,688.631 7217.43,688.631C7218.52,688.562 7218.31,688.032 7218.38,686.61L7219.02,648.874C7219,647.867 7218.61,647.572 7217.73,647.552C7217.73,647.552 7196.15,647.561 7184.37,647.529C7183.38,647.527 7183.04,647.711 7183.05,648.697ZM7205.78,638.313C7212.43,638.313 7219.44,638.336 7226.09,638.312C7227.02,638.308 7227.41,638.528 7227.41,639.46C7227.39,654.974 7227.3,671.29 7227.32,686.802C7227.32,687.664 7226.95,687.946 7226.06,687.938C7225.2,687.932 7224.29,687.77 7224.29,686.806C7224.31,675.23 7224.3,663.652 7224.3,652.076C7224.3,648.85 7224.27,645.624 7224.33,642.4C7224.34,641.382 7223.71,641.448 7222.97,641.448C7210.55,641.456 7198.14,641.448 7185.73,641.464C7184.84,641.466 7184.36,640.605 7184.36,639.543C7184.36,638.505 7184.8,638.291 7185.82,638.297C7192.47,638.327 7199.12,638.313 7205.78,638.313ZM7229.23,660.376C7229.23,653.034 7229.23,644.961 7229.27,637.619C7229.27,636.747 7229,636.543 7228.08,636.545C7215.7,636.573 7202.99,636.556 7190.61,636.554C7189.69,636.554 7188.88,636.214 7188.91,634.812C7188.94,633.47 7189.86,633.66 7190.73,633.66C7203.78,633.654 7217.81,633.533 7230.86,633.497C7232.13,633.495 7232.61,633.769 7232.6,635.033C7232.56,650.351 7232.42,666.912 7232.44,682.228C7232.44,683.136 7232.27,683.598 7231.11,683.594C7229.98,683.59 7229.21,683.262 7229.22,682.418C7229.24,675.072 7229.23,667.724 7229.23,660.376ZM7192.46,684.644C7191.16,684.644 7189.85,684.568 7188.56,684.666C7187.39,684.756 7187.03,684.408 7187.03,683.328C7187.03,682.168 7187.78,682.304 7188.57,682.306C7191.35,682.314 7194.14,682.342 7196.92,682.298C7197.99,682.282 7197.98,682.834 7198,683.544C7198.01,684.278 7197.87,684.698 7196.91,684.66C7195.43,684.6 7193.94,684.644 7192.46,684.644ZM7208.26,684.644C7206.92,684.644 7205.58,684.614 7204.24,684.654C7203.35,684.682 7202.78,684.612 7202.78,683.544C7202.78,682.506 7203.22,682.278 7204.24,682.294C7207.03,682.342 7209.82,682.344 7212.6,682.296C7213.65,682.278 7213.82,682.716 7213.83,683.54C7213.84,684.382 7213.54,684.696 7212.61,684.66C7211.16,684.602 7209.71,684.644 7208.26,684.644ZM7214.65,629.261C7221.3,629.261 7229.6,629.589 7236.25,629.549C7237.31,629.543 7237.68,629.813 7237.68,630.813C7237.65,646.203 7237.68,663.204 7237.7,678.596C7237.7,679.468 7237.48,679.892 7236.39,679.906C7235.3,679.92 7234.43,679.175 7234.44,678.315C7234.5,667.111 7234.16,636.76 7234.15,633.188C7234.14,632.316 7233.6,632.398 7232.99,632.398C7220.53,632.398 7207.07,632.386 7194.61,632.404C7193.61,632.404 7193.35,631.479 7193.34,630.335C7193.33,629.113 7194.07,629.257 7194.9,629.257C7201.48,629.263 7208.07,629.261 7214.65,629.261ZM7208.22,679.775C7206.88,679.775 7205.54,679.739 7204.21,679.787C7203.3,679.821 7202.76,679.701 7202.78,678.657C7202.8,677.673 7203.23,677.441 7204.19,677.453C7207.01,677.489 7209.83,677.495 7212.65,677.453C7213.85,677.437 7213.8,678.095 7213.83,678.863C7213.86,679.675 7213.44,679.827 7212.67,679.805C7211.19,679.765 7209.7,679.793 7208.22,679.793L7208.22,679.775ZM7192.49,679.775C7191.2,679.775 7189.9,679.731 7188.6,679.789C7187.61,679.835 7187.06,679.733 7187.06,678.579C7187.06,677.387 7187.77,677.455 7188.63,677.459C7191.3,677.473 7193.97,677.491 7196.64,677.451C7197.61,677.437 7198.01,677.681 7198.02,678.659C7198.04,679.709 7197.53,679.819 7196.61,679.787C7195.24,679.739 7193.87,679.775 7192.49,679.775ZM7200.49,672.82C7204.57,672.82 7208.66,672.84 7212.75,672.804C7213.66,672.796 7213.89,673.126 7213.88,673.892C7213.86,674.634 7213.76,675.14 7212.74,675.138C7204.53,675.118 7196.32,675.114 7188.11,675.138C7186.98,675.142 7187.14,674.502 7187.1,673.848C7187.07,673.158 7187.21,672.794 7188.12,672.802C7192.24,672.842 7196.36,672.82 7200.49,672.82ZM7200.51,667.948C7204.55,667.948 7208.6,667.968 7212.65,667.932C7213.58,667.924 7213.89,668.206 7213.88,669.05C7213.87,669.866 7213.71,670.302 7212.66,670.298C7211.61,670.294 7210.56,670.29 7209.52,670.288C7202.39,670.269 7195.27,670.274 7188.15,670.292C7187.31,670.294 7187,670.02 7187.09,669.272C7187.17,668.636 7186.89,667.91 7188.14,667.926C7192.26,667.984 7196.38,667.948 7200.51,667.948ZM7200.63,663.225C7196.55,663.225 7192.46,663.209 7188.38,663.239C7187.61,663.245 7187.33,663.043 7187.33,662.317C7187.36,658.597 7187.36,654.877 7187.33,651.157C7187.32,650.371 7187.67,650.173 7188.45,650.175C7196.62,650.189 7204.8,650.193 7212.97,650.171C7213.86,650.169 7214.11,650.511 7214.11,651.273C7214.08,654.919 7214.08,658.565 7214.1,662.211C7214.1,663.029 7213.72,663.269 7212.88,663.265C7208.8,663.243 7204.72,663.255 7200.63,663.255L7200.63,663.225ZM7200.85,653.025C7199.85,653.025 7198.84,653.019 7197.84,653.027C7195.31,653.045 7191.77,652.169 7190.55,653.339C7189.24,654.587 7190.1,656.592 7189.97,658.928C7189.9,659.97 7190.34,660.188 7191.36,660.18C7195.53,660.144 7199.69,660.17 7203.85,660.172C7211.79,660.174 7211.87,661.355 7211.78,654.067C7211.77,653.175 7211.43,652.997 7210.55,653.009C7207.32,653.051 7204.08,653.025 7200.85,653.025Z" style="fill:white;fill-rule:nonzero;"/>
            </g>
        </g>
    </g>
</svg>
