<?xml version="1.0" encoding="UTF-8" standalone="no"?>
<!DOCTYPE svg PUBLIC "-//W3C//DTD SVG 1.1//EN" "http://www.w3.org/Graphics/SVG/1.1/DTD/svg11.dtd">
<svg width="100%" height="100%" viewBox="0 0 224 249" version="1.1" xmlns="http://www.w3.org/2000/svg" xmlns:xlink="http://www.w3.org/1999/xlink" xml:space="preserve" xmlns:serif="http://www.serif.com/" style="fill-rule:evenodd;clip-rule:evenodd;stroke-linecap:round;stroke-linejoin:round;stroke-miterlimit:1.5;">
    <g transform="matrix(1,0,0,1,-646.947,-1746.24)">
        <g transform="matrix(1,0,0,1,464.438,-9.24214)">
            <g transform="matrix(1,0,0,1,-454.45,177.492)">
                <g transform="matrix(0.981792,0,0,0.910457,-86.3323,1213.24)">
                    <g transform="matrix(0.759641,0.643425,-0.649957,0.76589,534.577,-421.334)">
                        <path d="M826,472L852,464C862.064,427.139 851.345,385.021 817.11,394.431C783.225,403.745 793.858,438.071 826,472Z" style="fill:white;stroke:rgb(126,126,125);stroke-width:0.66px;"/>
                    </g>
                    <g transform="matrix(-0.0264681,0.99965,-0.99965,-0.0264681,1375.88,-336.338)">
                        <path d="M826,472L852,464C862.064,427.139 851.345,385.021 817.11,394.431C783.225,403.745 793.858,438.071 826,472Z" style="fill:white;stroke:rgb(126,126,125);stroke-width:0.63px;"/>
                    </g>
                    <g transform="matrix(-0.62748,0.778633,-0.778633,-0.62748,1780.34,160.505)">
                        <path d="M826,472L852,464C862.064,427.139 851.345,385.021 817.11,394.431C783.225,403.745 793.858,438.071 826,472Z" style="fill:white;stroke:rgb(126,126,125);stroke-width:0.61px;"/>
                    </g>
                    <g transform="matrix(-0.971185,0.238327,-0.238327,-0.971185,1803,802.822)">
                        <path d="M826,472L852,464C862.064,427.139 851.345,385.021 817.11,394.431C783.225,403.745 793.858,438.071 826,472Z" style="fill:white;stroke:rgb(126,126,125);stroke-width:0.62px;"/>
                    </g>
                    <g transform="matrix(-0.486219,-0.873837,0.873837,-0.486219,822.997,1506.8)">
                        <path d="M826,472L852,464C862.064,427.139 851.345,385.021 817.11,394.431C783.225,403.745 793.858,438.071 826,472Z" style="fill:white;stroke:rgb(126,126,125);stroke-width:0.66px;"/>
                    </g>
                    <g transform="matrix(0.143585,-0.989638,0.989638,0.143585,229.56,1281.48)">
                        <path d="M826,472L852,464C857.192,448.406 851.345,385.021 817.11,394.431C783.225,403.745 800.221,449.345 826,472Z" style="fill:white;stroke:rgb(126,126,125);stroke-width:0.63px;"/>
                    </g>
                    <g transform="matrix(0.71451,-0.699625,0.699625,0.71451,-104.921,744.477)">
                        <path d="M826,472L852,464C862.064,427.139 851.345,385.021 817.11,394.431C783.225,403.745 793.858,438.071 826,472Z" style="fill:white;stroke:rgb(126,126,125);stroke-width:0.61px;"/>
                    </g>
                    <g transform="matrix(0.967714,-0.00628448,0.00484927,0.999989,24.9432,12.985)">
                        <path d="M826,472L852.853,466.484C862.917,429.623 851.345,385.021 817.11,394.431C783.225,403.745 793.858,438.071 826,472Z" style="fill:white;stroke:rgb(126,126,125);stroke-width:0.65px;"/>
                    </g>
                </g>
                <g transform="matrix(1,0,0,1,-89.6688,1169.64)">
                    <path d="M815,633L841,636C841.891,642.733 841.493,648.694 840,654C839.17,656.951 832.013,657.947 829,655C822.576,648.716 817.832,641.428 815,633Z" style="fill:rgb(240,237,232);stroke:rgb(126,126,125);stroke-width:0.5px;"/>
                </g>
                <g transform="matrix(-1,0,0,1,1614.33,1169.64)">
                    <path d="M815,633L841,636C841.891,642.733 841.493,648.694 840,654C839.17,656.951 832.013,657.947 829,655C822.576,648.716 817.832,641.428 815,633Z" style="fill:rgb(240,237,232);stroke:rgb(126,126,125);stroke-width:0.5px;"/>
                </g>
                <g transform="matrix(-0.69559,0.527797,0.604465,0.796632,1023.2,836.64)">
                    <path d="M799,577C812.522,580.541 822.043,582.361 832,585C841.577,587.539 841.144,600.204 830,601C816.828,601.941 803.88,598.796 792,594C780.151,589.217 785.284,573.408 799,577Z" style="fill:rgb(240,237,232);stroke:rgb(126,126,125);stroke-width:0.53px;"/>
                </g>
                <g transform="matrix(0.462303,-0.740736,0.848336,0.529458,-164.39,2049.03)">
                    <path d="M799,577C812.522,580.541 822.043,582.361 832,585C841.577,587.539 841.144,600.204 830,601C816.828,601.941 803.88,598.796 792,594C780.151,589.217 785.284,573.408 799,577Z" style="fill:rgb(240,237,232);stroke:rgb(126,126,125);stroke-width:0.53px;"/>
                </g>
                <g transform="matrix(0.987954,0,0,0.98177,-82.0729,1183.41)">
                    <path d="M816.604,554.905C807.497,571.592 800.732,602.717 798,625C808.708,635.846 873.248,643.625 906,625C904.028,602.124 891.739,568.862 883.388,551.343C858.012,551.609 847.09,550.665 816.604,554.905Z" style="fill:none;"/>
                    <clipPath id="_clip1">
                        <path d="M816.604,554.905C807.497,571.592 800.732,602.717 798,625C808.708,635.846 873.248,643.625 906,625C904.028,602.124 891.739,568.862 883.388,551.343C858.012,551.609 847.09,550.665 816.604,554.905Z"/>
                    </clipPath>
                    <g clip-path="url(#_clip1)">
                        <g transform="matrix(0.220139,0,0,3.67122,730.595,-1039.21)">
                            <g transform="matrix(1,0,0,1,-93.9344,0.438256)">
                                <rect x="395.574" y="429.073" width="31.282" height="28.005" style="fill:rgb(235,28,44);stroke:rgb(244,237,226);stroke-width:0.2px;"/>
                            </g>
                            <g transform="matrix(1,0,0,1,-62.652,0.438256)">
                                <rect x="395.574" y="429.073" width="31.282" height="28.005" style="fill:rgb(209,159,40);stroke:rgb(244,237,226);stroke-width:0.2px;"/>
                            </g>
                            <g transform="matrix(1,0,0,1,-31.3697,0.438256)">
                                <rect x="395.574" y="429.073" width="31.282" height="28.005" style="fill:rgb(38,155,71);stroke:rgb(244,237,226);stroke-width:0.2px;"/>
                            </g>
                            <g transform="matrix(1,0,0,1,-0.0872753,0.438256)">
                                <rect x="395.574" y="429.073" width="31.282" height="28.005" style="fill:rgb(239,62,42);stroke:rgb(244,237,226);stroke-width:0.2px;"/>
                            </g>
                            <g transform="matrix(1,0,0,1,31.1951,0.438256)">
                                <rect x="395.574" y="429.073" width="31.282" height="28.005" style="fill:rgb(0,173,217);stroke:rgb(244,237,226);stroke-width:0.2px;"/>
                            </g>
                            <g transform="matrix(1,0,0,1,62.4775,0.438256)">
                                <rect x="395.574" y="429.073" width="31.282" height="28.005" style="fill:rgb(252,182,21);stroke:rgb(244,237,226);stroke-width:0.2px;"/>
                            </g>
                            <g transform="matrix(1,0,0,1,93.7599,0.438256)">
                                <rect x="395.574" y="429.073" width="31.282" height="28.005" style="fill:rgb(142,23,55);stroke:rgb(244,237,226);stroke-width:0.2px;"/>
                            </g>
                            <g transform="matrix(1,0,0,1,125.042,0.438256)">
                                <rect x="395.574" y="429.073" width="31.282" height="28.005" style="fill:rgb(243,108,36);stroke:rgb(244,237,226);stroke-width:0.2px;"/>
                            </g>
                            <g transform="matrix(1,0,0,1,156.325,0.438256)">
                                <rect x="395.574" y="429.073" width="31.282" height="28.005" style="fill:rgb(225,21,132);stroke:rgb(244,237,226);stroke-width:0.2px;"/>
                            </g>
                            <g transform="matrix(1,0,0,1,187.607,0.438256)">
                                <rect x="395.574" y="429.073" width="31.282" height="28.005" style="fill:rgb(248,157,37);stroke:rgb(244,237,226);stroke-width:0.2px;"/>
                            </g>
                            <g transform="matrix(1,0,0,1,218.889,0.438256)">
                                <rect x="395.574" y="429.073" width="31.282" height="28.005" style="fill:rgb(207,141,41);stroke:rgb(244,237,226);stroke-width:0.2px;"/>
                            </g>
                            <g transform="matrix(1,0,0,1,250.172,0.438256)">
                                <rect x="395.574" y="429.073" width="31.282" height="28.005" style="fill:rgb(70,118,59);stroke:rgb(244,237,226);stroke-width:0.2px;"/>
                            </g>
                            <g transform="matrix(1,0,0,1,281.454,0.438256)">
                                <rect x="395.574" y="429.073" width="31.282" height="28.005" style="fill:rgb(0,124,187);stroke:rgb(244,237,226);stroke-width:0.2px;"/>
                            </g>
                            <g transform="matrix(1,0,0,1,312.737,0.438256)">
                                <rect x="395.574" y="429.073" width="31.282" height="28.005" style="fill:rgb(62,175,73);stroke:rgb(244,237,226);stroke-width:0.2px;"/>
                            </g>
                            <g transform="matrix(1,0,0,1,344.019,0.438256)">
                                <rect x="395.574" y="429.073" width="31.282" height="28.005" style="fill:rgb(1,85,138);stroke:rgb(244,237,226);stroke-width:0.2px;"/>
                            </g>
                            <g transform="matrix(1,0,0,1,375.301,0.438256)">
                                <rect x="395.574" y="429.073" width="31.282" height="28.005" style="fill:rgb(24,53,103);stroke:rgb(244,237,226);stroke-width:0.2px;"/>
                            </g>
                        </g>
                    </g>
                    <path d="M816.604,554.905C807.497,571.592 800.732,602.717 798,625C808.708,635.846 873.248,643.625 906,625C904.028,602.124 891.739,568.862 883.388,551.343C858.012,551.609 847.09,550.665 816.604,554.905Z" style="fill:none;stroke:rgb(126,126,125);stroke-width:0.51px;"/>
                </g>
                <g transform="matrix(0.660501,0.121257,-0.139879,0.761934,155.319,1129.37)">
                    <path d="M939.981,524.238C929.179,543.251 939.582,582.67 950.837,603.401C964.6,628.75 1004.07,634.563 1042.44,628.357C1084.66,621.529 1117.87,594.638 1118.42,573.869C1119.24,543.226 1110.29,509.981 1097.33,498.764C1058.35,465.033 952.844,501.597 939.981,524.238Z" style="fill:rgb(240,237,232);stroke:rgb(126,126,125);stroke-width:0.69px;"/>
                </g>
                <g transform="matrix(1,0,0,1,-87.725,1183.25)">
                    <g transform="matrix(1.13752,0,0,1.19594,-554.897,-94.172)">
                        <ellipse cx="1215.29" cy="492.568" rx="4.78" ry="6.455" style="fill:rgb(26,26,26);"/>
                    </g>
                    <g transform="matrix(1.13752,0,0,1.19594,-514.482,-93.3946)">
                        <ellipse cx="1215.29" cy="492.568" rx="4.78" ry="6.455" style="fill:rgb(26,26,26);"/>
                    </g>
                    <g transform="matrix(1.2726,0,0,1.90333,-716.458,-462.744)">
                        <ellipse cx="1207.55" cy="513.576" rx="9.969" ry="4.861" style="fill:rgb(254,237,209);fill-opacity:0.25;"/>
                    </g>
                    <g transform="matrix(1.2726,0,0,1.90333,-656.108,-462.744)">
                        <ellipse cx="1207.55" cy="513.576" rx="9.969" ry="4.861" style="fill:rgb(254,237,209);fill-opacity:0.25;"/>
                    </g>
                    <g transform="matrix(1.09885,0,0,2.10282,-506.065,-545.95)">
                        <ellipse cx="1202.57" cy="498.086" rx="3.289" ry="0.936" style="fill:rgb(26,26,26);"/>
                    </g>
                    <g transform="matrix(1.09885,0,0,2.10282,-440.826,-546.727)">
                        <ellipse cx="1202.57" cy="498.086" rx="3.289" ry="0.936" style="fill:rgb(26,26,26);"/>
                    </g>
                    <g transform="matrix(1,0,0,1,-131.993,-917.201)">
                        <path d="M968.134,1435.51L990.058,1435.17C991.396,1451.56 968.988,1455.35 968.134,1435.51Z"/>
                    </g>
                </g>
                <g transform="matrix(0.855378,0.13053,-0.13053,0.855378,-80.1168,1134.22)">
                    <g transform="matrix(0.987578,-0.157131,0.157131,0.987578,114.725,119.92)">
                        <path d="M825.787,435.959C827.782,428.096 832.261,424.333 836.908,420.847C845.502,428.438 848.39,438.406 850.199,448.57C845.04,451.589 839.137,452.492 832.168,450.367L825.787,435.959Z" style="fill:none;"/>
                        <clipPath id="_clip2">
                            <path d="M825.787,435.959C827.782,428.096 832.261,424.333 836.908,420.847C845.502,428.438 848.39,438.406 850.199,448.57C845.04,451.589 839.137,452.492 832.168,450.367L825.787,435.959Z"/>
                        </clipPath>
                        <g clip-path="url(#_clip2)">
                            <g transform="matrix(0.103505,-0.0472107,0.546173,1.19744,522.82,-57.5964)">
                                <g transform="matrix(1,0,0,1,218.889,0.438256)">
                                    <rect x="395.574" y="429.073" width="31.282" height="28.005" style="fill:rgb(207,141,41);stroke:white;stroke-width:0.62px;"/>
                                </g>
                                <g transform="matrix(1,0,0,1,250.172,0.438256)">
                                    <rect x="395.574" y="429.073" width="31.282" height="28.005" style="fill:rgb(70,118,59);stroke:white;stroke-width:0.62px;"/>
                                </g>
                                <g transform="matrix(1,0,0,1,281.454,0.438256)">
                                    <rect x="395.574" y="429.073" width="31.282" height="28.005" style="fill:rgb(0,124,187);stroke:white;stroke-width:0.62px;"/>
                                </g>
                                <g transform="matrix(1,0,0,1,312.737,0.438256)">
                                    <rect x="395.574" y="429.073" width="31.282" height="28.005" style="fill:rgb(62,175,73);stroke:white;stroke-width:0.62px;"/>
                                </g>
                                <g transform="matrix(1,0,0,1,344.019,0.438256)">
                                    <rect x="395.574" y="429.073" width="31.282" height="28.005" style="fill:rgb(1,85,138);stroke:white;stroke-width:0.62px;"/>
                                </g>
                                <g transform="matrix(1,0,0,1,375.301,0.438256)">
                                    <rect x="395.574" y="429.073" width="31.282" height="28.005" style="fill:rgb(24,53,103);stroke:white;stroke-width:0.62px;"/>
                                </g>
                            </g>
                        </g>
                        <path d="M825.787,435.959C827.782,428.096 832.261,424.333 836.908,420.847C845.502,428.438 848.39,438.406 850.199,448.57C845.04,451.589 839.137,452.492 832.168,450.367L825.787,435.959Z" style="fill:none;stroke:rgb(108,108,108);stroke-width:0.58px;"/>
                    </g>
                    <g transform="matrix(-0.496273,0.868166,0.868166,0.496273,1017.51,-501.171)">
                        <path d="M824.548,435.735C826.544,427.871 832.261,424.333 836.908,420.847C845.248,429.915 848.395,439.007 850.199,448.57C845.04,451.589 838.184,452.017 831.216,449.891L824.548,435.735Z" style="fill:none;"/>
                        <clipPath id="_clip3">
                            <path d="M824.548,435.735C826.544,427.871 832.261,424.333 836.908,420.847C845.248,429.915 848.395,439.007 850.199,448.57C845.04,451.589 838.184,452.017 831.216,449.891L824.548,435.735Z"/>
                        </clipPath>
                        <g clip-path="url(#_clip3)">
                            <g transform="matrix(-0.101645,0.0510936,0.591093,1.17591,614.791,-104.14)">
                                <g transform="matrix(1,0,0,1,-93.9344,0.438256)">
                                    <rect x="395.574" y="429.073" width="31.282" height="28.005" style="fill:rgb(235,28,44);stroke:white;stroke-width:0.62px;"/>
                                </g>
                                <g transform="matrix(1,0,0,1,-62.652,0.438256)">
                                    <rect x="395.574" y="429.073" width="31.282" height="28.005" style="fill:rgb(209,159,40);stroke:white;stroke-width:0.62px;"/>
                                </g>
                                <g transform="matrix(1,0,0,1,-31.3697,0.438256)">
                                    <rect x="395.574" y="429.073" width="31.282" height="28.005" style="fill:rgb(38,155,71);stroke:white;stroke-width:0.62px;"/>
                                </g>
                                <g transform="matrix(1,0,0,1,-0.0872753,0.438256)">
                                    <rect x="395.574" y="429.073" width="31.282" height="28.005" style="fill:rgb(239,62,42);stroke:white;stroke-width:0.62px;"/>
                                </g>
                                <g transform="matrix(1,0,0,1,31.1951,0.438256)">
                                    <rect x="395.574" y="429.073" width="31.282" height="28.005" style="fill:rgb(0,173,217);stroke:white;stroke-width:0.62px;"/>
                                </g>
                                <g transform="matrix(1,0,0,1,62.4775,0.438256)">
                                    <rect x="395.574" y="429.073" width="31.282" height="28.005" style="fill:rgb(252,182,21);stroke:white;stroke-width:0.62px;"/>
                                </g>
                            </g>
                        </g>
                        <path d="M824.548,435.735C826.544,427.871 832.261,424.333 836.908,420.847C845.248,429.915 848.395,439.007 850.199,448.57C845.04,451.589 838.184,452.017 831.216,449.891L824.548,435.735Z" style="fill:none;stroke:rgb(108,108,108);stroke-width:0.58px;"/>
                    </g>
                    <g transform="matrix(0.987578,-0.157131,0.157131,0.987578,114.725,119.92)">
                        <path d="M812.181,444.133C815.828,439.691 820.486,437.204 825.787,435.959C829.148,441.417 831.295,446.159 832.168,450.367C830.998,453.983 826.91,456.4 819.037,458.199C815.841,453.73 813.338,449.057 812.181,444.133Z" style="fill:none;"/>
                        <clipPath id="_clip4">
                            <path d="M812.181,444.133C815.828,439.691 820.486,437.204 825.787,435.959C829.148,441.417 831.295,446.159 832.168,450.367C830.998,453.983 826.91,456.4 819.037,458.199C815.841,453.73 813.338,449.057 812.181,444.133Z"/>
                        </clipPath>
                        <g clip-path="url(#_clip4)">
                            <g transform="matrix(0.103505,-0.0472107,0.546173,1.19744,522.82,-57.5964)">
                                <g transform="matrix(1,0,0,1,62.4775,0.438256)">
                                    <rect x="395.574" y="429.073" width="31.282" height="28.005" style="fill:rgb(252,182,21);stroke:white;stroke-width:0.62px;"/>
                                </g>
                                <g transform="matrix(1,0,0,1,93.7599,0.438256)">
                                    <rect x="395.574" y="429.073" width="31.282" height="28.005" style="fill:rgb(142,23,55);stroke:white;stroke-width:0.62px;"/>
                                </g>
                                <g transform="matrix(1,0,0,1,125.042,0.438256)">
                                    <rect x="395.574" y="429.073" width="31.282" height="28.005" style="fill:rgb(243,108,36);stroke:white;stroke-width:0.62px;"/>
                                </g>
                                <g transform="matrix(1,0,0,1,156.325,0.438256)">
                                    <rect x="395.574" y="429.073" width="31.282" height="28.005" style="fill:rgb(225,21,132);stroke:white;stroke-width:0.62px;"/>
                                </g>
                                <g transform="matrix(1,0,0,1,187.607,0.438256)">
                                    <rect x="395.574" y="429.073" width="31.282" height="28.005" style="fill:rgb(248,157,37);stroke:white;stroke-width:0.62px;"/>
                                </g>
                                <g transform="matrix(1,0,0,1,218.889,0.438256)">
                                    <rect x="395.574" y="429.073" width="31.282" height="28.005" style="fill:rgb(207,141,41);stroke:white;stroke-width:0.62px;"/>
                                </g>
                            </g>
                        </g>
                        <path d="M812.181,444.133C815.828,439.691 820.486,437.204 825.787,435.959C829.148,441.417 831.295,446.159 832.168,450.367C830.998,453.983 826.91,456.4 819.037,458.199C815.841,453.73 813.338,449.057 812.181,444.133Z" style="fill:none;stroke:rgb(108,108,108);stroke-width:0.58px;"/>
                    </g>
                </g>
                <g transform="matrix(1,0,0,1,-219.67,266.065)">
                    <path d="M970.124,1443.47C972.325,1447.81 978.273,1451.56 985.385,1446.79C983.124,1441.47 977.94,1439.9 970.124,1443.47Z" style="fill:rgb(45,45,45);"/>
                </g>
            </g>
        </g>
    </g>
</svg>
